<?xml version="1.0" encoding="utf-8"?>
<!-- Generator: Adobe Illustrator 25.2.3, SVG Export Plug-In . SVG Version: 6.00 Build 0)  -->
<svg version="1.0" id="Layer_1" xmlns="http://www.w3.org/2000/svg" xmlns:xlink="http://www.w3.org/1999/xlink" x="0px" y="0px"
	 viewBox="0 0 1280 1024" style="enable-background:new 0 0 1280 1024;" xml:space="preserve">
<path d="M592.5,264.5c-1.8,2.6-5.4,3.2-8,1.4c-2.6-1.8-3.2-5.3-1.4-7.9c12.6-17.7,29.8-34.3,54.8-45.3c10.1-4.4,21.5-7.9,34.4-10.2
	c-15.8-17.4-19.2-55.7-21.6-81.6c-0.6-6.3-1.1-11.7-1.7-16c-0.5-3.1,1.7-6,4.9-6.4c3.1-0.5,6,1.7,6.4,4.9c0.6,4.1,1.1,9.9,1.7,16.6
	c2.8,30.4,7.2,80.4,30.2,80.4c13.8-0.9,29-0.5,45.9,1.7c17,2.1,36.5,9.2,56.5,16.3c1.8,0.6,3.8,1.4,5.7,2c8.4,2.6,15.5,2.4,21.6,0.6
	c6.3-1.8,11.8-5.5,16.9-9.5c15-11.9,29.2-23.2,45-31.9c16-8.8,33.4-15.1,54.6-16.8c3.2-0.3,5.8,2.1,6.1,5.2c0.3,3.2-2.1,5.8-5.2,6.1
	c-19.2,1.4-35.1,7.2-49.9,15.4c-15,8.4-28.8,19.2-43.4,30.8c-4.8,3.8-10.1,7.3-16,9.8c1.1,0.3,2.1,0.6,3.2,0.9
	c7.5,2,14.9,3.7,22.1,4.6c6.9,0.9,13.5,0.9,19.6,0.2c3.1-0.5,6,1.7,6.4,4.9c0.5,3.1-1.7,6-4.9,6.4c-7.2,1.1-14.9,0.9-22.7,0
	c-7.5-0.9-15.5-2.6-23.6-4.9c-13.2-3.7-26.4-8.4-39.4-13.1c-19.3-7-38.2-13.7-54-15.7c-40.8-5-71.2-0.2-94.4,9.9
	C619.8,232.9,604,248.3,592.5,264.5L592.5,264.5z M463.1,831.9c1.1-1.7,3.2-2.1,4.9-1.1s2.1,3.2,1.1,4.9
	c-4.9,7.8-11.4,20.6-15.8,32.8c-3.4,9.2-5.7,17.9-5.2,23.5c0.2,2-1.2,3.7-3.2,3.8s-3.7-1.2-3.8-3.2c-0.6-6.7,1.8-16.5,5.5-26.5
	C451.3,853.4,458.1,840,463.1,831.9L463.1,831.9z M813.3,257.6c-1.8-0.6-2.8-2.7-2.1-4.6c0.6-1.8,2.8-2.7,4.6-2.1
	c7.5,2.7,14.7,4.9,21.9,6.4c7.1,1.4,13.8,2.1,20.1,1.7c2-0.2,3.7,1.4,3.8,3.4c0.2,2-1.4,3.7-3.4,3.8c-7.1,0.5-14.4-0.3-21.9-1.8
	C828.6,262.6,821.1,260.4,813.3,257.6L813.3,257.6z M392.4,585.3l27.2,37.8c1.8,2.6,1.2,6.1-1.4,7.9c-2.6,1.8-6.1,1.2-8-1.4
	L387,597.4c-2.6,5.2-5.7,10.2-9.2,15.3c-1.8,2.6-5.4,3.2-8,1.5c-2.6-1.7-3.2-5.3-1.5-7.9c6.9-10.1,12-19.8,15.2-30.8
	c3.2-11,4.6-23,4.3-37.8c-0.2-3.2,2.5-5.8,5.5-5.8s5.8,2.4,5.8,5.5c0.5,16-1.1,29.3-4.8,41.3C393.9,580.9,393.2,583.2,392.4,585.3
	L392.4,585.3z M546.1,207.4c6.1,0,11.8,2.4,15.8,6.6c4,4,6.6,9.6,6.6,15.7c0,6.1-2.5,11.7-6.6,15.7c-4,4-9.7,6.6-15.8,6.6
	c-6.1,0-11.8-2.4-15.8-6.6c-4-4-6.6-9.6-6.6-15.7c0-6.1,2.5-11.7,6.6-15.7C534.3,209.8,540,207.4,546.1,207.4z M553.8,221.9
	c-2-2-4.8-3.2-7.7-3.2c-3.1,0-5.7,1.2-7.7,3.2c-2,2-3.2,4.7-3.2,7.6c0,3.1,1.2,5.6,3.2,7.6c2,2,4.8,3.2,7.7,3.2
	c3.1,0,5.7-1.2,7.7-3.2c2-2,3.2-4.7,3.2-7.6S555.8,223.9,553.8,221.9z M529.9,281.4c6.9,0,13.2,2.7,17.8,7.3
	c4.6,4.6,7.4,10.8,7.4,17.7s-2.8,13.1-7.4,17.7c-4.6,4.6-10.9,7.3-17.8,7.3c-6.9,0-13.2-2.7-17.8-7.3c-4.6-4.6-7.4-10.8-7.4-17.7
	s2.8-13.1,7.4-17.7C516.7,284.2,523,281.4,529.9,281.4z M539.5,296.8c-2.5-2.4-5.8-4-9.7-4s-7.2,1.5-9.7,4c-2.5,2.4-4,5.8-4,9.6
	s1.5,7.2,4,9.6c2.5,2.4,5.8,4,9.7,4s7.2-1.5,9.7-4c2.5-2.4,4-5.8,4-9.6S542,299.3,539.5,296.8z M516.5,377.8
	c7.7,0,14.7,3.1,19.6,8.1c5.1,5,8.1,11.9,8.1,19.5c0,7.6-3.1,14.6-8.1,19.5c-5.1,5-12,8.1-19.6,8.1s-14.7-3.1-19.6-8.1
	c-5.1-5-8.1-11.9-8.1-19.5c0-7.6,3.1-14.6,8.1-19.5C501.9,381,508.9,377.8,516.5,377.8L516.5,377.8z M528.2,394
	c-2.9-2.9-7.1-4.7-11.7-4.7c-4.6,0-8.6,1.8-11.7,4.7c-2.9,2.9-4.8,7-4.8,11.6c0,4.6,1.8,8.5,4.8,11.6c2.9,2.9,7.1,4.7,11.7,4.7
	c4.6,0,8.6-1.8,11.7-4.7c2.9-2.9,4.8-7,4.8-11.6C532.9,401,531.1,397.1,528.2,394z M541.4,476.4c9.2,0,17.6,3.7,23.6,9.8
	c6,6.1,9.8,14.3,9.8,23.5c0,9.2-3.7,17.5-9.8,23.5c-6,6-14.4,9.8-23.6,9.8s-17.6-3.7-23.6-9.8c-6-6-9.8-14.3-9.8-23.5
	c0-9.2,3.7-17.5,9.8-23.5C523.7,480.2,532,476.4,541.4,476.4z M556.9,494.2c-4-4-9.5-6.4-15.5-6.4c-6.1,0-11.5,2.4-15.5,6.4
	c-4,4-6.4,9.5-6.4,15.4c0,6.1,2.5,11.4,6.4,15.4c4,4,9.5,6.4,15.5,6.4c6.1,0,11.5-2.4,15.5-6.4c4-4,6.4-9.3,6.4-15.4
	C563.3,503.7,560.9,498.2,556.9,494.2z M555,877.8c6.1,0,11.8,2.4,15.8,6.6c4,4,6.6,9.6,6.6,15.7s-2.5,11.7-6.6,15.7
	c-4,4-9.7,6.6-15.8,6.6s-11.8-2.4-15.8-6.6c-4-4-6.6-9.6-6.6-15.7s2.5-11.7,6.6-15.7C543.4,880.3,548.9,877.8,555,877.8z
	 M562.7,892.3c-2-2-4.8-3.2-7.7-3.2c-3.1,0-5.7,1.2-7.7,3.2s-3.2,4.7-3.2,7.6c0,3.1,1.2,5.6,3.2,7.6c2,2,4.8,3.2,7.7,3.2
	c3.1,0,5.7-1.2,7.7-3.2s3.2-4.7,3.2-7.6C565.9,897,564.7,894.3,562.7,892.3z M577.6,793.1c7.7,0,14.7,3.1,19.6,8.1
	c5.1,5,8.1,11.9,8.1,19.5s-3.1,14.6-8.1,19.5c-5.1,5-12,8.1-19.6,8.1c-7.7,0-14.7-3.1-19.6-8.1c-5.1-5-8.1-11.9-8.1-19.5
	s3.1-14.6,8.1-19.5C563,796.2,569.9,793.1,577.6,793.1L577.6,793.1z M589.3,809.3c-2.9-2.9-7.1-4.7-11.7-4.7
	c-4.6,0-8.6,1.8-11.7,4.7c-2.9,2.9-4.8,7-4.8,11.6s1.8,8.5,4.8,11.6c2.9,2.9,7.1,4.7,11.7,4.7c4.6,0,8.6-1.8,11.7-4.7
	c2.9-2.9,4.8-7,4.8-11.6S592.2,812.2,589.3,809.3z M593.1,692.9c9.2,0,17.6,3.7,23.6,9.8c6,6,9.8,14.3,9.8,23.5s-3.7,17.5-9.8,23.5
	c-6,6-14.4,9.8-23.6,9.8c-9.2,0-17.6-3.7-23.6-9.8c-6-6-9.8-14.3-9.8-23.5s3.7-17.5,9.8-23.5C575.4,696.7,583.9,692.9,593.1,692.9z
	 M608.6,710.7c-4-4-9.5-6.4-15.5-6.4c-6.1,0-11.5,2.4-15.5,6.4s-6.4,9.5-6.4,15.4c0,6.1,2.5,11.4,6.4,15.4s9.5,6.4,15.5,6.4
	c6.1,0,11.5-2.4,15.5-6.4c4-4,6.4-9.5,6.4-15.4C615,720.1,612.6,714.7,608.6,710.7z M581.7,575.7c9.8,0,18.7,4,25.3,10.4
	c6.4,6.4,10.4,15.3,10.4,25.2c0,9.8-4,18.6-10.4,25.2c-6.4,6.4-15.3,10.4-25.3,10.4c-9.8,0-18.7-4-25.3-10.4
	C550,630,546,621.2,546,611.3c0-9.8,4-18.6,10.4-25.2C563,579.7,571.9,575.7,581.7,575.7z M598.9,594.2c-4.4-4.4-10.4-7-17.2-7
	s-12.7,2.7-17.2,7c-4.4,4.4-7.1,10.4-7.1,17.1c0,6.7,2.8,12.7,7.1,17.1c4.4,4.4,10.4,7,17.2,7c6.8,0,12.7-2.7,17.2-7
	c4.4-4.4,7.1-10.4,7.1-17.1C606,604.6,603.4,598.6,598.9,594.2z M778.6,745.7c-2.3,12.5-2.3,25-1.4,35.7c1.4,14.2,4.6,25.2,7.4,29.9
	c10,16.5,18.6,37.4,22.4,58.4c3.4,18,3.2,36.2-2.3,52.2c-1.1,2.9-4.3,4.6-7.2,3.5c-2.9-1.1-4.6-4.3-3.5-7.2
	c4.8-13.9,4.8-30.1,1.8-46.4c-3.7-19.5-11.7-39.1-21-54.6c-3.2-5.3-6.8-16.6-8.6-30.8c-4,13-8.1,27.2-12.4,42.4
	c-0.8,3.1-4,4.7-7.1,4s-4.8-4-4-7c6.3-22.6,11.8-40.9,16.9-57.1c20.1-65.9,30.4-99.9,23.8-189.2c-1.1-13.4-1.2-27.2,0.5-41
	c0.3-2,0.5-4.1,0.8-6.1c-6.8,9-14.7,18.9-24.2,30.8c-2,2.4-5.5,2.9-8,0.9c-2.5-2-2.9-5.5-0.9-7.9c21.3-26.4,34.5-43.5,43.4-60.1
	c0,0,0-0.2,0.2-0.2c1.8-3.5,3.5-6.9,5.1-10.4c8.9-20.1,12.9-42.9,19.2-83.3c0.5-3.1,3.4-5.2,6.4-4.7s5.2,3.4,4.8,6.4
	c-6.4,41.3-10.6,64.7-20.1,86.2c-1.7,3.7-3.4,7.3-5.4,11c-5.5,13-8.6,25.9-10,38.8c-1.5,13.1-1.4,26.1-0.3,39.1
	C800.8,657.5,793.8,694,778.6,745.7L778.6,745.7z M848.4,355.9c-3.1,0.6-6.1-1.4-6.8-4.4s1.4-6.1,4.4-6.7
	c83.9-16.6,93.9-33.4,124-83.8c8.9-15,19.6-32.8,34.2-54.3c1.8-2.6,5.4-3.4,8-1.5c2.6,1.8,3.4,5.3,1.5,7.9
	c-14.6,21.4-25,39.1-33.9,53.9C948,320.5,937.4,338.2,848.4,355.9L848.4,355.9z M707.7,440.7c-1.2,2.9-4.8,4.1-7.5,2.9
	c-2.9-1.2-4.1-4.7-2.9-7.5c8.1-17.9,17.8-33.6,32.2-46.5s33.4-23,60.1-29.4c3.1-0.8,6.1,1.1,6.9,4.1c0.8,3.1-1.1,6.1-4.1,6.9
	c-24.7,6-42.2,15.1-55.2,26.9C724.1,409.7,715.2,424.2,707.7,440.7L707.7,440.7z M456.8,627.9c0-0.2-0.2-0.2-0.2-0.3
	c-36.5-70-58.5-121.4-85.2-218.2c-0.8-3.1,0.9-6.1,4-7c3.1-0.8,6.1,0.9,7.1,4C409,502,430.8,553,467,622.4l0.2,0.2
	c0.5,0.8,0.9,1.7,1.2,2.4c10,19.2,21.2,39.8,33.8,63.2l4.4,8.4c1.5,2.7,0.5,6.3-2.3,7.6c-2.8,1.5-6.3,0.5-7.7-2.3l-4.4-8.4
	c-2.6-4.7-5.1-9.5-7.5-14c0.3,2.7,0.5,5.6,0.8,8.4c1.2,21.8-1.7,43.8-6.9,65.3c-4.4,18-17.2,43.2-30.4,69
	c-18.6,36.6-38.1,74.8-34.5,93.2c0.6,3.1-1.5,6.1-4.6,6.6c-3.1,0.6-6.1-1.5-6.6-4.6c-4.3-22.1,16.1-62.1,35.6-100.4
	c12.9-25.3,25.5-49.9,29.6-66.7c5.1-20.4,7.8-41.3,6.6-61.9C472.5,668.2,467.4,647.7,456.8,627.9L456.8,627.9z M516.2,109.9
	c-0.6-3.1,1.5-6.1,4.6-6.6c3.1-0.6,6.1,1.5,6.6,4.6c3.1,16.3,4.3,33.6,2.5,49.3c-1.7,14-5.8,26.9-13.3,36.9
	c-5.7,7.6-27.2,19.1-54.3,31.4c-26.2,11.9-58.6,25-86.8,36.2c-100.5,39.8-99.4,173.2-98.5,282.6c0.2,12.5,0.2,24.7,0.2,36.5
	c-0.3,79.5,50.3,105.4,113.9,138.1c17.2,8.8,35.3,18,53.7,29c2.8,1.7,3.5,5,2,7.8c-1.7,2.7-5.1,3.5-7.8,2
	c-18.1-10.7-36.1-20-53.1-28.7c-67.1-34.3-120.4-61.8-120.1-148.1c0-11.7,0-24-0.2-36.5c-0.9-112.9-2.1-250.5,105.7-293.2
	c27.8-11,59.8-24,86.4-36c25.6-11.6,45.4-21.8,49.9-27.8c6.3-8.4,9.7-19.4,11.2-31.6C520.4,141.3,519.1,125.2,516.2,109.9
	L516.2,109.9z M636,350.3l-1-0.7c-0.9-0.6-1.2-1.8-0.7-2.7c2.4-3.6,3.9-7.7,4.5-12c0.6-4.5,0.3-9.1-0.9-13.5
	c-1.1-4.5-3-8.8-5.7-12.7c-2.7-3.7-6-6.9-9.9-9.4c-0.9-0.6-1.3-1.8-0.7-2.7c0,0,0,0,0,0l0.6-1c0.6-0.9,1.8-1.1,2.7-0.5
	c3.9,2.5,8.2,4.3,12.6,5.2c4.6,0.9,9.3,0.9,13.8,0c4.5-0.8,8.8-2.4,12.7-4.8c3.7-2.3,6.7-5.4,9-9.1c0.6-0.9,1.7-1.1,2.7-0.5l1,0.7
	c0.9,0.6,1.2,1.8,0.7,2.7c-2.4,3.6-3.9,7.7-4.5,12c-0.6,4.5-0.3,9.1,0.9,13.5c1.1,4.5,3,8.8,5.7,12.7c2.7,3.7,6,6.9,9.9,9.4
	c0.9,0.6,1.2,1.8,0.7,2.7c0,0,0,0,0,0l-0.6,1c-0.6,0.9-1.8,1.1-2.7,0.5l0,0c-3.9-2.5-8.1-4.3-12.6-5.2c-9.3-1.6-18.7,0.1-26.5,4.8
	c-3.6,2.4-6.7,5.4-9,9.1C638.1,350.7,636.9,350.9,636,350.3L636,350.3z M642.6,335.7c-0.2,1.5-0.5,3-0.9,4.5c1.1-1,2.4-1.9,3.7-2.7
	c8.5-5.2,19-7.1,29.3-5.3c1.6,0.3,3.1,0.7,4.6,1.2c-1.1-1.2-2.1-2.4-3-3.8c-3-4.3-5.2-9.1-6.4-14c-1.3-5-1.7-10.1-1-15
	c0.2-1.5,0.5-3,1-4.5c-1.1,1-2.4,1.9-3.6,2.7c-4.2,2.7-9,4.5-14,5.3c-5,1-10.2,1-15.3,0c-1.6-0.3-3.1-0.7-4.7-1.2
	c1.1,1.2,2.1,2.4,3,3.8c3,4.3,5.2,9.1,6.4,14C643,325.7,643.3,330.8,642.6,335.7z M452.7,569.5l-0.8-0.6c-0.8-0.5-1-1.5-0.5-2.2
	c2-3,3.3-6.4,3.9-10c0.5-3.7,0.3-7.6-0.6-11.3c-0.9-3.8-2.4-7.4-4.6-10.7c-2.2-3.1-5-5.9-8.2-8c-0.8-0.5-1-1.5-0.6-2.2c0,0,0,0,0,0
	l0.5-0.8c0.5-0.7,1.5-0.9,2.3-0.4c3.2,2.2,6.8,3.7,10.5,4.5c3.9,0.8,7.8,0.8,11.6,0.2c3.8-0.6,7.4-1.9,10.6-3.8
	c3.1-1.9,5.7-4.5,7.6-7.5c0.5-0.7,1.5-0.9,2.2-0.4l0.8,0.6c0.8,0.5,1,1.5,0.5,2.2c-2,3-3.3,6.4-3.9,10c-0.5,3.7-0.3,7.6,0.6,11.3
	c0.8,3.8,2.4,7.4,4.6,10.7c2.2,3.1,5,5.9,8.2,8c0.8,0.5,1,1.5,0.5,2.2c0,0,0,0,0,0l-0.5,0.8c-0.5,0.7-1.5,0.9-2.3,0.4l0,0
	c-3.2-2.2-6.8-3.7-10.5-4.5c-7.8-1.5-15.7-0.2-22.2,3.7c-3.1,1.9-5.7,4.5-7.6,7.5C454.5,569.8,453.5,570,452.7,569.5L452.7,569.5z
	 M458.5,557.4c-0.2,1.3-0.5,2.5-0.8,3.7c1-0.8,2-1.5,3.1-2.2c7.2-4.3,15.9-5.7,24.6-4c1.3,0.3,2.6,0.6,3.9,1.1
	c-0.9-1-1.7-2.1-2.5-3.2c-2.5-3.6-4.2-7.6-5.1-11.8c-1-4.2-1.3-8.4-0.7-12.5c0.2-1.3,0.5-2.5,0.9-3.7c-1,0.8-2,1.5-3.1,2.2
	c-3.6,2.2-7.5,3.6-11.8,4.3c-4.2,0.7-8.5,0.7-12.8-0.2c-1.3-0.3-2.6-0.6-3.9-1.1c0.9,1,1.7,2.1,2.5,3.2c2.5,3.6,4.2,7.6,5.1,11.8
	C458.9,549,459.1,553.3,458.5,557.4z M671.9,735l-0.6-0.8c-0.5-0.8-0.4-1.8,0.3-2.3c2.9-2.1,5.3-4.8,7.1-8c1.8-3.3,2.9-7,3.3-10.9
	c0.5-3.8,0.2-7.8-0.7-11.6c-1-3.7-2.7-7.2-5-10.3c-0.6-0.7-0.5-1.8,0.2-2.3c0,0,0,0,0,0l0.8-0.6c0.7-0.5,1.7-0.3,2.2,0.4
	c2.3,3.1,5.1,5.8,8.3,7.8c3.4,2.1,7,3.5,10.8,4.1c3.8,0.7,7.6,0.8,11.3,0c3.5-0.7,6.9-2.2,9.7-4.4c0.7-0.5,1.7-0.3,2.2,0.4l0.6,0.8
	c0.5,0.7,0.4,1.8-0.3,2.3c-2.9,2.1-5.3,4.8-7.1,8c-1.8,3.3-2.9,7-3.3,10.8c-0.5,3.8-0.2,7.8,0.7,11.6c1,3.7,2.7,7.2,5,10.3
	c0.6,0.7,0.4,1.8-0.2,2.3c0,0,0,0,0,0l-0.8,0.6c-0.7,0.5-1.7,0.3-2.3-0.4l0,0c-2.3-3.1-5.1-5.8-8.3-7.8c-6.8-4.1-14.7-5.5-22.1-4.2
	c-3.5,0.8-6.8,2.3-9.7,4.4C673.4,736,672.4,735.8,671.9,735L671.9,735z M681.4,725.6c-0.6,1.1-1.3,2.2-2.1,3.2
	c1.2-0.4,2.4-0.8,3.7-1c8.2-1.6,16.9,0.1,24.5,4.6c1.1,0.7,2.2,1.5,3.3,2.3c-0.5-1.3-0.9-2.5-1.3-3.8c-1.1-4.2-1.4-8.6-0.8-12.9
	c0.4-4.3,1.7-8.3,3.6-12c0.6-1.1,1.3-2.2,2.1-3.2c-1.2,0.4-2.4,0.8-3.6,1c-4.1,0.8-8.3,0.8-12.5,0c-4.2-0.7-8.3-2.3-12-4.6
	c-1.1-0.7-2.2-1.5-3.3-2.3c0.5,1.3,0.9,2.5,1.3,3.8c1.1,4.2,1.4,8.6,0.8,12.9C684.6,717.9,683.3,722,681.4,725.6z"/>
</svg>
