<?xml version="1.0" encoding="utf-8"?>
<!-- Generator: Adobe Illustrator 25.2.3, SVG Export Plug-In . SVG Version: 6.00 Build 0)  -->
<svg version="1.0" id="Layer_1" xmlns="http://www.w3.org/2000/svg" xmlns:xlink="http://www.w3.org/1999/xlink" x="0px" y="0px"
	 viewBox="0 0 1280 1024" style="enable-background:new 0 0 1280 1024;" xml:space="preserve">
<path d="M591.9,747.2c2-4.2,0.2-9.6-4.1-11.9c-4.2-2.3-9.5-0.8-11.6,3.5c-0.7,1.3-1.2,2.6-1.9,4c-2-15.2-4.9-31.1-9.6-48.3
	c-17.9-65.7-35.5-130.2-46.2-184.7c-10.5-53.5-14.8-97.5-6.5-123.5c0.3-0.8,0.6-1.8,0.6-2.8l1.4-41.4l0,0c0.1-2.3-0.7-4.5-2.4-6.4
	c-5.6-6.3-10.4-12.6-13.2-19c-2.5-5.6-3.3-11.3-1.7-17.2c1.4-5,3.8-9.6,7.2-12.1c2.3-1.7,5.4-2.4,9.1-1.5c1,0.2,2,0.6,2.7,1.1
	c0.4,0.2,0.9,0.4,1.2,0.7c4.3,13,10,25.9,15.3,37.6c2.1,4.6,4,9.1,5.6,13.1c-3.9,2.3-7.7,4.8-11.4,7.4c-3.8,2.8-4.6,8.3-1.7,12.2
	c2.9,4,8.3,5.1,12.1,2.3c25.9-18.5,61.3-29.8,98.8-32.8c37.2-3,76.2,2,110.4,16.2c0.8,0.3,1.6,0.5,2.4,0.6
	c17.3,8.9,28.6,22.3,34.5,37.7c5.5,14.1,6.5,29.8,3.6,45.1c-2.9,15.5-9.8,30.4-20.1,42.6c-13.9,16.5-34.1,28.2-59.3,29.8
	c-4.7,0.3-8.1,4.5-7.6,9.3c0.6,4.9,4.8,8.5,9.6,8.3c24.5-1.6,45.1-11.2,60.8-25.3c-37.2,98-38.3,143.9-33,237.7
	c-6.7-11.4-14.9-21.9-24.9-31.3c-3.7-3.4-9-3.3-12.2,0.2c-3.2,3.6-2.8,9,0.8,12.4c11.6,10.8,20.4,23.4,27,37.3
	c6.6,14,10.9,29.5,13.2,46.2c0,0.4,0.2,0.8,0.2,1.3c0.3,16.4-1.2,30.8-4.6,43.1c-4.8,17.9-13.2,31.3-24.5,40.6
	c-15,12.1-35.4,17-55.3,14.8c-19.8-2.1-39-11-52.5-26.5c-6.1-7-11.6-15.2-15.8-24.8c-3.7-8.3-6.2-17.8-7.3-28.3
	c-0.7-7.3-1.3-15.3-2-23.5c1.1-7.6,2.6-14.9,4.6-21.9C585.9,761.5,588.6,754.1,591.9,747.2L591.9,747.2z M561.9,789.8l-0.2,1
	c-0.2,1.5,0,3.1,0.6,4.4c0.5,6.2,1,12.8,1.8,20.2c1.2,12.5,4.2,23.8,8.7,33.8c5.1,11.5,11.7,21.3,18.9,29.7
	c16.6,18.9,40.3,30,64.3,32.5c24.1,2.6,48.8-3.3,67.3-18.3c14-11.4,24.3-27.8,30.1-49.1c5.2-19.8,6.6-44,3.5-72.6l-0.7-12.6
	c-7.3-119.1-9.8-160.8,38.6-281.4c0.1-0.2,0.2-0.3,0.2-0.6l0,0c7.1-21.5,10.8-40.5,11.4-58.9c0.7-18.5-1.2-36.2-5.7-55.5
	c0-0.2-0.1-0.3-0.1-0.5c-5.1-19.6-8.7-38-11.2-55.3c-2.4-16.8-3.8-32.4-4.2-46.8c3.3-12.1,5.8-24.2,6.8-36.1
	c1-12.6,0.3-25.1-2.5-37.2c-1.6-6.3-3.6-12.4-6.2-18.1c-5.8-12.5-13.8-23.4-24-30.4c-10.6-7.4-23.4-10.6-37.7-7.8
	c-3.8,0.7-7.7,2-11.8,3.6c-3.2,1.4-6,2.9-8.9,4.9c-2.7,1.9-5.5,4.2-8,6.9c-8.4,8.7-12.8,16.4-15.2,24c-2.5-2.3-5-4.5-7.6-6.2
	c-10.4-7-22.2-8.8-33-5.4c-11.3,3.4-17.2,8.9-20.4,16.3c-1.7,4-2.5,8.1-2.8,12.7c-3.9-2.9-8.1-4.9-12.3-6.2
	c-6.5-1.9-13.2-1.9-19.3,0.2l0,0l0,0c-6,2-11.4,5.8-15.6,11.3c-5.2,6.6-8.7,15.9-9.4,27.2c-1.1-0.8-2.2-1.6-3.3-2.3
	c-6.5-4-12.7-5.3-18.5-4.3c-5.8,1-10.8,4.3-14.6,9.1c-4.4,5.5-7.7,13.2-9.4,22.3c-1.3,7.3-0.9,15.2,0.6,23.6
	c-7.3-0.8-13.4,1.2-18.4,4.9c-6.5,4.8-10.8,12.5-13.2,20.9c-2.9,10.4-1.5,20.1,2.6,29.3c3.2,7.4,8.2,14.3,14,21l-1.2,36.7
	c-9,29.3-4.7,75.9,6.3,131.5c11,55.6,28.6,120.4,46.6,186c9.1,33.1,11.1,61.2,13.4,89.9L561.9,789.8L561.9,789.8z M675.2,196.2
	l0.1,3.2c0.1,2,0.1,4,0.2,9.1l0.1,7.5c0,0.2,0,0.3,0,0.5v0.2l0.8,92.9c-12.2-0.9-24.3-1.1-36.3-0.4c-0.5-18.5-2.6-36.8-4.6-55.1
	l-0.3-3.2c5.5,3.2,11.4,4.9,16.9,5.3c4.7,0.2,8.7-3.4,8.7-8.3c0-4.8-3.8-9-8.6-9.3c-3.8-0.2-8.3-1.9-12.3-4.9
	c-3-2.3-5.6-5.3-7.5-8.8c-0.8-9.1-1.4-18-1.6-26.9c-0.2-6.9-0.2-12.5,1.5-16.1c1.3-2.9,4.2-5.2,10.3-7.1c6-1.9,12.5-0.7,18.5,3.2
	C666.6,181.8,671.7,187.8,675.2,196.2L675.2,196.2z M693.7,311.6l-0.4-50.7c5.9,5.3,13,8.3,21.2,9.2c4.7,0.5,8.8-3,9.1-7.9
	c0.2-4.8-3.3-9.2-8.1-9.6c-6-0.7-10.7-3.2-14.1-8l0,0c-4.1-5.8-6.9-14.8-8.5-27.6l-0.1-7.8c0-1.5-0.2-5.6-0.2-9.4v-0.5
	c0.7-1.9,0.7-4-0.2-6c-0.2-13.3,1.2-22.9,12.8-35c1.8-1.9,3.6-3.5,5.6-4.8c2-1.4,3.8-2.4,5.9-3.2c3-1.2,5.9-2.2,8.6-2.8
	c9.4-1.9,17.5,0.2,24.3,4.9c7.3,5,13.2,13,17.4,22.6c2.1,4.7,3.8,9.7,5.1,15c2.5,10.2,3.1,20.6,2.1,31.5c-0.9,11-3.3,22.3-6.5,33.9
	c-0.2,0.9-0.4,1.9-0.3,2.8c0.6,15.5,2,32.2,4.6,50c1.7,11.7,3.8,23.9,6.7,36.7c-6.5-6.5-14.2-12.1-23.2-16.6c-1.1-0.5-2-0.7-3-1
	c-0.2-0.1-0.2-0.1-0.4-0.2C733.6,319.6,713.9,314.4,693.7,311.6L693.7,311.6z M614.2,213.2c0.2,3.5,0.5,6.9,0.7,10.4
	c-0.3,1.6-0.2,3.4,0.4,5.1c0.8,9,1.9,17.7,2.9,26.5c2.1,18.7,4.2,37.4,4.6,55.5c-11.1,1.3-22.1,3.5-32.6,6.2L582,273
	c5.1,1.9,10.6,2.8,15.8,2.2c4.7-0.5,8-4.8,7.2-9.7c-0.7-4.9-5.1-8.3-9.9-7.9c-4.1,0.4-8.5-0.7-12.1-3.4c-2.7-2-4.9-5-6.3-9
	l-2.1-11.4v-0.3c-2-13.6,0.4-23.7,5.3-30c2.3-2.9,5-4.9,8.1-5.9l0,0c2.9-1,6.1-1.1,9.2-0.2c5.9,1.7,11.9,6.7,16.7,15.6L614.2,213.2
	L614.2,213.2z M560.4,248.9l13.4,72.9c-7.2,2.4-14.1,5.3-20.8,8.3c-1.6-3.7-3.3-7.6-5.1-11.7c-2.5-5.6-5.1-11.5-7.5-17.4
	c3.6,0.4,7.1,0.6,10.3,0.5c1,0,2,0,2.6,0c4.7,0.1,8.5-3.6,8.3-8.5c-0.2-4.8-4.1-8.9-8.8-9c-1.2-0.1-2-0.1-2.9-0.1
	c-6.3,0-14.3-0.2-18.3-6.2c-3.3-11.2-5.2-21.5-3.8-29.5c1.1-6.3,3.3-11.5,6-14.8c1.5-1.9,3.2-3.1,4.8-3.5c1.6-0.3,3.8,0.2,6.4,1.8
	c4.2,2.8,9.3,7.9,14.7,16.1L560.4,248.9L560.4,248.9z M662.6,568.5c1.1-4.6-1.6-9.6-6.2-11c-4.7-1.5-9.3,1.1-10.5,5.7
	c-4.7,18.2-6.6,36.5-6.4,55c0.2,18.5,2.9,36.9,7.4,55.3c1.1,4.7,5.8,7.9,10.5,7c4.7-0.9,7.4-5.5,6.4-10.4
	c-4.2-17.3-6.6-34.5-6.9-51.3C656.5,602.1,658.3,585.3,662.6,568.5L662.6,568.5z M402.9,266.1h-2c-1.7,0-3.2-1.5-3.3-3.4
	c-0.1-7.9-1.6-15.8-4.6-23.1c-3.1-7.4-7.6-14.2-13.1-19.9c-5.3-5.7-11.7-10.4-18.6-13.6c-6.7-3-14-4.5-21.2-4.2
	c-1.7,0.1-3.3-1.5-3.3-3.4l0,0v-2.1c0-1.9,1.3-3.5,3.1-3.6c7.3-0.1,14.5-1.7,21.2-5c6.9-3.4,13-8.3,18.2-14.2
	c5.3-5.9,9.5-12.8,12.4-20.4c2.8-7.4,4.1-15.2,3.8-23.2c0-1.9,1.3-3.5,3.1-3.6h2c1.7,0,3.2,1.5,3.3,3.4c0.1,7.9,1.6,15.8,4.6,23.1
	c3.1,7.5,7.6,14.2,13.1,19.9c5.3,5.8,11.7,10.4,18.6,13.6c6.7,3,14,4.5,21.2,4.3c1.7-0.1,3.3,1.5,3.3,3.4l0,0v2.1
	c0,1.9-1.3,3.6-3.2,3.6l0,0c-7.3,0.1-14.5,1.7-21.2,5c-13.7,7.1-24.6,19.4-30.6,34.6c-2.8,7.4-4,15.2-3.8,23.2
	C405.9,264.6,404.6,266,402.9,266.1L402.9,266.1z M398.9,236.8c1.1,2.5,1.9,5.2,2.7,7.9c0.7-2.7,1.4-5.3,2.4-7.9
	c6.6-16.8,18.7-30.4,33.9-38.3c2.4-1.1,4.7-2.1,7.2-2.8c-2.5-0.6-4.9-1.6-7.3-2.7c-7.7-3.5-14.7-8.7-20.6-15
	c-6.1-6.2-10.9-13.7-14.5-22.1c-1.1-2.5-2-5.2-2.7-7.9c-0.7,2.7-1.4,5.3-2.4,7.9c-3.2,8.4-7.8,16.1-13.7,22.6
	c-5.7,6.6-12.6,11.9-20.2,15.8c-2.4,1.1-4.7,2.1-7.2,2.9c2.5,0.6,4.9,1.6,7.3,2.7c7.7,3.5,14.7,8.6,20.6,15
	C390.4,221,395.4,228.5,398.9,236.8z M453.4,843.5h1.2c1.1,0,2,1.1,2,2.2c-0.1,4.9,0.7,9.8,2.5,14.2c1.9,4.6,4.6,8.9,7.9,12.5
	c3.3,3.6,7.3,6.6,11.6,8.7c4.2,1.9,8.8,3,13.5,3c1.1,0,2,1,2,2.1l0,0v1.3c0,1.2-1,2.1-2,2.1c-4.7-0.1-9.3,0.8-13.6,2.7
	c-4.4,2-8.4,4.9-11.8,8.4c-3.5,3.6-6.4,7.7-8.2,12.3c-1.9,4.5-2.9,9.4-2.9,14.2c0,1.2-0.9,2.1-2,2.1h-1.2c-1.1,0-2-1.1-2-2.1
	c0.1-4.9-0.7-9.8-2.5-14.2c-1.8-4.6-4.5-8.9-7.9-12.5c-3.3-3.6-7.3-6.6-11.6-8.7c-4.2-1.9-8.8-3-13.5-3c-1.1,0-2-1-2-2.1l0,0v-1.3
	c0-1.2,1-2.1,2-2.1l0,0c4.7,0.1,9.3-0.8,13.6-2.7c8.8-4.1,16-11.5,20.2-20.6c1.9-4.5,2.9-9.4,2.9-14.2
	C451.4,844.4,452.3,843.5,453.4,843.5L453.4,843.5z M455.4,861.6c-0.6-1.6-1.1-3.2-1.6-4.9c-0.4,1.7-1.1,3.3-1.7,4.8
	c-4.5,10.3-12.5,18.5-22.3,22.9c-1.5,0.6-3.1,1.1-4.7,1.7c1.6,0.5,3,1.1,4.6,1.8c4.8,2.3,9.1,5.6,12.8,9.6c3.8,4,6.7,8.7,8.8,13.8
	c0.6,1.6,1.1,3.2,1.6,4.9c0.4-1.7,1.1-3.3,1.7-4.8c2.2-5.1,5.3-9.8,9.1-13.6c3.8-4,8.2-7.1,13.2-9.3c1.5-0.6,3.1-1.1,4.7-1.7
	c-1.6-0.5-3-1.1-4.6-1.8c-4.8-2.3-9.1-5.6-12.8-9.6C460.4,871.5,457.4,866.8,455.4,861.6z M888.9,576h-1.6c-1.5,0-2.7-1.3-2.7-2.7
	c0.1-6.2-1.1-12.4-3.5-18.1c-2.6-5.9-6.3-11.3-10.9-15.8c-4.6-4.7-9.9-8.3-15.8-10.9c-5.8-2.4-12-3.6-18.2-3.7
	c-1.5,0-2.7-1.2-2.8-2.7l0,0v-1.7c0-1.5,1.2-2.7,2.7-2.7c6.3,0.1,12.5-1.1,18.2-3.6c6-2.6,11.4-6.3,15.9-10.8
	c4.7-4.5,8.3-9.9,11-15.7c2.5-5.7,3.8-11.9,3.8-18.1c0-1.5,1.2-2.7,2.7-2.7h1.6c1.5,0,2.7,1.2,2.7,2.7c-0.1,6.2,1.1,12.4,3.5,18.1
	c2.6,5.9,6.3,11.3,10.9,15.8c4.6,4.7,9.9,8.4,15.8,10.9c5.8,2.4,12,3.6,18.2,3.7c1.5,0,2.7,1.2,2.7,2.7l0,0v1.7
	c0,1.5-1.2,2.7-2.7,2.7l0,0c-6.3-0.1-12.4,1.1-18.2,3.6c-11.9,5.3-21.4,14.7-26.9,26.6c-2.5,5.7-3.8,11.9-3.7,18.1
	C891.6,574.8,890.4,576,888.9,576L888.9,576z M885.9,553.1c0.9,2,1.6,4,2.2,6.2c0.7-2.1,1.3-4.1,2.2-6.2c6-13.1,16.6-23.6,29.8-29.4
	c2-0.8,4.1-1.6,6.2-2.2c-2.1-0.6-4.2-1.4-6.2-2.2c-6.5-2.9-12.5-7-17.5-12.1c-5.1-5-9.2-10.9-12.1-17.5c-0.9-2-1.6-4-2.2-6.2
	c-0.7,2.1-1.3,4.1-2.2,6.2c-2.9,6.6-7,12.5-12.2,17.4c-5,5.1-10.9,9.1-17.6,12c-2,0.8-4.1,1.6-6.2,2.2c2.1,0.6,4.2,1.3,6.2,2.2
	c6.5,2.9,12.5,7,17.5,12.1C879,540.5,883,546.4,885.9,553.1z"/>
</svg>
