<?xml version="1.0" encoding="utf-8"?>
<!-- Generator: Adobe Illustrator 25.2.3, SVG Export Plug-In . SVG Version: 6.00 Build 0)  -->
<svg version="1.1" id="Layer_1" xmlns="http://www.w3.org/2000/svg" xmlns:xlink="http://www.w3.org/1999/xlink" x="0px" y="0px"
	 viewBox="0 0 6000 4000" style="enable-background:new 0 0 6000 4000;" xml:space="preserve">
<style type="text/css">
	.st0{fill:#FFFFFF;stroke:#000000;stroke-width:25;stroke-miterlimit:10;}
	.st1{fill:#FFF3ED;}
	.st2{fill:#FFFFFF;}
	.st3{fill:#F3CFC6;}
	.st4{fill:#150E0D;}
	.st5{fill:none;stroke:#000000;stroke-width:25;stroke-miterlimit:10;}
	.st6{fill:none;}
	.st7{font-family:'Helvetica-Oblique';}
	.st8{font-size:828.2209px;}
	.st9{font-size:821.0762px;}
	.st10{fill:#FFFFFF;stroke:#FFFFFF;stroke-width:25;stroke-miterlimit:10;}
</style>
<g>
	<path class="st0" d="M2483.4,539.6c150-89.4,327-141.1,516.6-141.1"/>
	<path class="st0" d="M2892.7,1807.9c16.1-15.5,30.8-32.4,43.7-50.5c0.2-0.3,0.5-0.6,0.7-1"/>
	<path class="st0" d="M1442.6,1913.6c0,230.3,82.8,441.5,220.6,606.3"/>
	<path class="st0" d="M2637.1,2277.7"/>
	<path class="st0" d="M2637.1,1913.6"/>
	<path class="st0" d="M3000,1913.6"/>
	<path class="st0" d="M3000,2277.7"/>
	<path class="st0" d="M2891.9,2018.5c-14.6-14.5-30.4-27.7-47.3-39.5c-0.3-0.2-0.7-0.5-1-0.7"/>
	<path class="st0" d="M3000,3428.6c189.6,0,366.6-51.6,516.5-141.1"/>
	<path class="st0" d="M3108.1,2018.5c-16.5,15.7-31.4,32.9-44.5,51.2c-0.2,0.3-0.5,0.6-0.7,0.9"/>
	<path class="st0" d="M3000,2266.7"/>
	<path class="st0" d="M4336.8,1307.3c137.8,164.8,220.6,376,220.6,606.2"/>
	<path class="st0" d="M3107.3,1807.9c14.8,14.8,30.9,28.2,48.1,40.2c0.3,0.2,0.7,0.5,1,0.7"/>
</g>
<g>
	<g id="XMLID_1_">
		<g>
			<path class="st1" d="M4557.4,1913.5l-220.6-606.2C4474.6,1472.1,4557.4,1683.3,4557.4,1913.5z"/>
			<path class="st1" d="M4336.8,1307.3l220.6,606.2l-0.1,0.1l-189.2,566.7c26.3-184.6-1.4-376.1-83-549L4336.8,1307.3z"/>
			<path class="st1" d="M4368.1,2480.3l189.2-566.7C4557.3,2125.9,4487,2321.9,4368.1,2480.3z"/>
			<path class="st1" d="M3157.2,1977.7c0-0.1,0-0.2-0.1-0.2c-0.6-3.3-1.2-6.5-1.8-9.8l-4.8-53.6c0,1.7,0,3.3,0,5
				c-0.1-1.7-0.1-3.4-0.1-5.1v-0.2c0-1.9,0-3.7,0.1-5.6c0,1.9,0,3.8,0.1,5.7l4.2-56.1c0.5-3,1-6,1.5-9c0,0,0,0,0-0.1
				c0,0,0.1,0,0.1,0.1l-0.1-0.1c0.1-0.3,0.1-0.7,0.2-1c0,0,0,0,0,0c0.8-4.4,1.7-8.7,2.6-13.1c0.2-1.1,0.5-2.3,0.8-3.4
				c9.6-41.3,26.5-81.3,50.7-117.9c0,0,0,0,0.1-0.1c1.3-1.9,2.5-3.8,3.8-5.7c2-3,4.1-5.9,6.3-8.8c10.9-14.9,23.2-29.2,36.7-42.7
				c184.2-184.2,460.3-220.5,681.6-109.3c55.2,27.7,106.9,64.6,153,110.7c82,82,146.4,174.9,193.1,273.9l0-0.1
				c81.6,172.9,109.3,364.4,83,549l-446.7,329.2c37.9-100.1,58.6-208.2,58.6-320.9c0-63.6-10.9-124.7-30.9-181.9
				c-47.6-135.7-147.1-248.9-276.1-318.4c-11.8-6.4-23.9-12.4-36.1-18c-79.5-36.4-168.6-56.8-262.7-56.8
				c-80.8,0-155.6,24.1-216.8,65.2C3157.3,1978.4,3157.3,1978.1,3157.2,1977.7z"/>
			<path class="st1" d="M4101.2,3014.8l266.9-534.5C4340.2,2676.4,4251.3,2864.7,4101.2,3014.8z"/>
			<path class="st1" d="M4368.1,2480.3l-266.9,534.5v0.1l-584.6,272.7c185.1-110.4,329.1-278.3,404.7-477.8c0-0.1,0.1-0.2,0.1-0.3
				L4368.1,2480.3z"/>
			<path class="st1" d="M4336.8,1307.3l-265.5-465C4205.3,976.3,4294,1138,4336.8,1307.3z"/>
			<path class="st1" d="M4071.3,842.3l265.5,465c-108.8-130.1-251.8-231.2-415.6-289.9c-0.1,0-0.2-0.1-0.4-0.1l-362.6-451.4
				l513,276.4H4071.3z"/>
			<path class="st1" d="M4336.8,1307.3l-51.7,624c0,0,0,0,0,0c-46.7-99-111.1-191.9-193.1-273.9c-46.1-46.1-97.8-83-153-110.7
				c-221.3-111.2-497.4-74.8-681.6,109.3c-13.5,13.5-25.7,27.8-36.7,42.8c-2.1,2.9-4.2,5.9-6.3,8.8c-1.3,1.9-2.6,3.8-3.8,5.7
				c0,0,0,0.1-0.1,0.1c-24.2,36.6-41.1,76.6-50.7,117.9c-0.3,1.1-0.5,2.3-0.8,3.4c-1,4.3-1.8,8.6-2.6,13c0,0,0,0.1,0,0.1
				c-0.3-0.2-0.6-0.4-0.9-0.6l0-0.1c0,0,0,0,0,0.1c0,0-0.1,0-0.1-0.1c-2.7-1.8-5.3-3.7-7.9-5.5l-40.3-33.6l-35.8-41.5
				c-2-2.8-4-5.5-6-8.3c-0.2-0.3-0.5-0.7-0.7-1c-40.9-58.9-64.8-130.5-64.8-207.7c0-88.1,19.4-171.8,54.2-246.8
				c4.6-9.9,9.5-19.7,14.6-29.4c66.4-124.5,176.4-222.4,309.6-273.5c65.9-25.3,137.6-39.2,212.4-39.2c116,0,227.2,20.2,330.2,57.1
				l-0.3-0.3c0.1,0,0.2,0.1,0.4,0.1C4085,1076.1,4228,1177.2,4336.8,1307.3z"/>
			<path class="st2" d="M4285.1,1931.3C4285.1,1931.3,4285.1,1931.3,4285.1,1931.3L4285.1,1931.3
				c-46.7-98.9-111.1-191.8-193.1-273.8c-46.1-46.1-97.8-83-153-110.7c-221.3-111.2-497.4-74.9-681.6,109.3
				c-13.5,13.5-25.7,27.8-36.7,42.7c10.9-15,23.2-29.3,36.7-42.8c184.2-184.1,460.3-220.5,681.6-109.3
				c55.2,27.7,106.9,64.6,153,110.7C4174,1739.4,4238.4,1832.3,4285.1,1931.3z"/>
			<path class="st1" d="M3516.6,3287.6l584.6-272.7C3938.4,3177.7,3730.5,3268.5,3516.6,3287.6z"/>
			<path class="st1" d="M4071.2,842.3l-513-276.4C3744.8,603.3,3924.6,695.6,4071.2,842.3z"/>
			<path class="st2" d="M3949.1,2306.7c20,57.2,30.9,118.3,30.9,181.9c0,112.7-20.6,220.8-58.6,320.9l-0.3,0.2
				c38-100.2,58.7-208.4,58.7-321.2c0-63.6-10.8-124.7-30.9-181.9c-47.6-135.6-147-248.8-275.9-318.3
				C3802,2057.8,3901.5,2171,3949.1,2306.7z"/>
			<path class="st1" d="M3948.9,2306.6c20.1,57.2,30.9,118.3,30.9,181.9c0,112.8-20.7,221-58.7,321.2l0.3-0.2c0,0.1-0.1,0.2-0.1,0.3
				c-75.6,199.5-219.6,367.4-404.7,477.8l-0.2,0c0,0,0.1,0,0.1-0.1l-0.2,0.1l-498.5-88.9c97.7-44,188.8-105.8,268.6-185.6
				c51.9-51.9,91.3-111.8,118.3-176.1c89.7-213.9,41.9-476.9-139.9-658.7c-57.4-57.4-127.8-93.3-200.5-107.4c0.2-0.4,0.5-0.7,0.7-1
				c2.4-3.4,4.9-6.9,7.4-10.2c0,0,0,0,0-0.1l35-40.3c0.3-0.3,0.5-0.5,0.8-0.8c0.2-0.2,0.5-0.4,0.7-0.7l38.4-31.8
				c3.1-2.2,6.2-4.4,9.4-6.5c0.3-0.3,0.7-0.5,1-0.7c61.2-41,136-65.2,216.8-65.2c94,0,183.1,20.4,262.5,56.7
				c12.3,5.6,24.3,11.6,36.1,18C3801.9,2057.8,3901.3,2171,3948.9,2306.6z"/>
			<path class="st2" d="M3920.8,1017.3l0.3,0.3c-103-36.9-214.2-57.1-330.2-57.1c-74.8,0-146.5,13.9-212.4,39.2
				c-133.2,51.1-243.2,149-309.6,273.5c66.4-124.6,176.4-222.5,309.7-273.7c65.9-25.3,137.5-39.2,212.4-39.2
				C3706.9,960.3,3817.9,980.5,3920.8,1017.3z"/>
			<path class="st1" d="M3558.2,565.9l362.6,451.4c-102.9-36.8-214-57-329.8-57c-74.9,0-146.5,13.9-212.4,39.2
				c-133.3,51.2-243.3,149.1-309.7,273.7c-5.2,9.6-10,19.4-14.6,29.4c-34.9,75.1-54.3,158.8-54.3,247c0,77.2,23.9,148.8,64.8,207.7
				c-0.3,0-0.6,0.1-1,0.1l-0.1-0.1c0,0,0.1,0.1,0.1,0.1c-0.1,0-0.1,0-0.2,0.1c-3.2,0.6-6.4,1.1-9.6,1.5l-54.3,4
				c1.9,0,3.7,0.1,5.6,0.1c-1.9,0-3.7,0-5.6,0c-0.1,0-0.1,0-0.2,0c-1.6,0-3.3-0.1-4.9-0.1c1.6,0,3.3,0,4.9,0l-52.2-4.6
				c-3.4-0.5-6.8-1.1-10.2-1.8c0,0,0,0,0,0c0.1-0.1,0.1-0.1,0.1-0.2l-0.2,0.2c-0.4,0-0.8-0.1-1.1-0.2c0,0,0,0-0.1,0
				c0,0,0-0.1,0.1-0.1c-72.7-14.1-143.1-50-200.5-107.4c-137.7-137.7-198.5-322-181-496.2c0.3-3.2,0.7-6.5,1.1-9.7
				c0.5-4.2,1-8.4,1.6-12.6c0.2-1.3,0.4-2.6,0.5-3.8c0.5-3.5,1.1-6.9,1.6-10.4c0.4-2.4,0.8-4.8,1.2-7.1c0.4-2.3,0.8-4.6,1.3-6.8
				c0,0,0-0.1,0-0.1c0.4-2.3,0.9-4.5,1.4-6.8c0.2-1.2,0.5-2.4,0.7-3.6c7.3-34.6,17.8-68.6,31.6-101.4
				c27-64.4,66.4-124.3,118.3-176.2c79.8-79.7,170.9-141.6,268.6-185.6C3161.9,547.6,3363.7,526.9,3558.2,565.9z"/>
			<path class="st3" d="M3558.2,565.8v0.1c-194.5-39-396.3-18.3-576,62.6c-97.7,44-188.8,105.9-268.6,185.6
				c-51.9,51.9-91.3,111.8-118.3,176.2c-13.7,32.8-24.2,66.8-31.6,101.4c7.3-34.7,17.8-68.7,31.6-101.5
				c27-64.3,66.4-124.2,118.3-176.2c79.8-79.8,170.9-141.6,268.6-185.6l-498.8-88.8L3000,398.5L3558.2,565.8z"/>
			<path class="st3" d="M3558.2,565.8L3000,398.5C3207.4,398.5,3399.8,460.3,3558.2,565.8z"/>
			<path class="st2" d="M3516.5,3287.5c0,0-0.1,0-0.1,0.1l-0.1,0L3516.5,3287.5z"/>
			<path class="st1" d="M3516.3,3287.6L3516.3,3287.6c-149.8,89.5-326.8,141.1-516.3,141.1L3516.3,3287.6z"/>
			<path class="st1" d="M3516.3,3287.6L3000,3428.6l-558.2-167.3c194.4,39,396.3,18.3,575.9-62.6c97.7-44,188.9-105.8,268.6-185.6
				c51.9-51.9,91.3-111.8,118.3-176.1c89.7-213.9,41.9-476.9-139.9-658.7c-57.4-57.4-127.7-93.3-200.4-107.4v0
				c72.7,14.1,143.1,50,200.5,107.4c181.8,181.8,229.6,444.8,139.9,658.7c-27,64.3-66.4,124.2-118.3,176.1
				c-79.8,79.8-170.9,141.6-268.6,185.6L3516.3,3287.6z"/>
			<path class="st3" d="M3264.7,2178.3c181.8,181.8,229.6,444.8,139.9,658.7c-27,64.3-66.4,124.2-118.3,176.1
				c-79.7,79.8-170.9,141.6-268.6,185.6c-179.6,80.9-381.5,101.6-575.9,62.6l0-0.1l-363-451.4c103,37,214.2,57.1,330.2,57.1
				c74.8,0,146.5-13.9,212.4-39.2c193.8-74.5,338.3-247.8,371.4-457.9c0.3-1.9,0.6-3.8,0.9-5.6c0.6-3.7,1.1-7.5,1.6-11.2
				c0,0,0-0.1,0-0.1c1.4-10.8,2.5-21.8,3.2-32.8c0.1-1.2,0.2-2.4,0.2-3.7c0.2-3.2,0.4-6.3,0.6-9.5c0.5-9.7,0.7-19.4,0.7-29.2
				c0-6-0.1-12-0.4-17.9c-3.4-70.3-26.6-135.4-64.3-189.7c0.5-0.1,0.9-0.1,1.2-0.2c3.8-0.7,7.6-1.3,11.4-1.8l53.1-3.8
				c0.5,0,1,0,1.5,0c0.1,0,0.2,0,0.3,0c0.5,0,1.1,0,1.6,0.1l46.6,4.3c4,0.6,8,1.3,12,2.1c0.4,0,0.8,0.1,1.2,0.2c0,0,0.1,0,0.1,0
				C3137,2085,3207.3,2120.9,3264.7,2178.3z"/>
			<path class="st2" d="M3157.2,1977.7l-0.9,0.7l0-0.1C3156.7,1978.2,3157,1977.9,3157.2,1977.7z"/>
			<path class="st2" d="M3156.5,1847.6c0.8-4.3,1.7-8.7,2.6-13C3158.2,1839,3157.3,1843.3,3156.5,1847.6
				C3156.5,1847.7,3156.5,1847.7,3156.5,1847.6C3156.5,1847.7,3156.5,1847.6,3156.5,1847.6z"/>
			<path class="st2" d="M3156.4,1978.4l0.1,1.1C3156.4,1979.2,3156.4,1978.8,3156.4,1978.4L3156.4,1978.4z"/>
			<path class="st2" d="M3156.4,1978.3l0,0.1l-0.1,0.1C3156.3,1978.5,3156.3,1978.4,3156.4,1978.3
				C3156.3,1978.4,3156.4,1978.4,3156.4,1978.3z"/>
			<path class="st2" d="M3156.4,1848.8C3156.4,1848.8,3156.3,1848.8,3156.4,1848.8L3156.4,1848.8L3156.4,1848.8z"/>
			<path class="st2" d="M3155.4,1967.7l1,10.6c0,0,0,0-0.1,0.1c0,0,0-0.1,0-0.1c-3.5-19.6-5.4-39.4-5.7-59.2
				C3151.2,1935.3,3152.7,1951.5,3155.4,1967.7z"/>
			<path class="st2" d="M3156.3,1978.4c0,0,0,0.1,0,0.1l-9.1,7.5c-13.6,9.8-26.4,20.4-38.4,31.8l-0.8,0.7
				C3123,2003.8,3139.1,1990.4,3156.3,1978.4C3156.3,1978.4,3156.3,1978.4,3156.3,1978.4z"/>
			<path class="st4" d="M3156.3,1978.3C3156.3,1978.3,3156.3,1978.4,3156.3,1978.3C3156.3,1978.4,3156.3,1978.4,3156.3,1978.3
				c-17.2,12.1-33.3,25.5-48.2,40.2c-16.5,15.7-31.4,32.9-44.5,51.2c-20.1-3.5-40.4-5.4-60.8-5.5l1.6,0.2c-0.5,0-1.1,0-1.6-0.1
				c-0.1,0-0.2,0-0.3,0c-0.5,0-1,0-1.5,0l1.4-0.1c-22.4-0.5-44.7,1-66.6,4.6c-13-18-27.6-34.9-43.8-50.3l0.6,0.7
				c-0.2-0.2-0.5-0.5-0.7-0.7c-14.6-14.5-30.4-27.7-47.3-39.5c3.7-22.3,5.3-45,4.8-67.8c0,0,0-0.1,0-0.1c0-0.1,0-0.2,0-0.3
				c-0.1-20.8-2-41.5-5.7-62c16.4-11.4,31.9-24.2,46.2-38.1c1-0.9,1.9-1.8,2.8-2.7c1-1,2-2,3-3c0.1-0.1,0.1-0.1,0.2-0.2
				c14.8-14.6,28.4-30.4,40.4-47.3c19.2,3.4,38.6,5.2,58.1,5.5c1.7,0.1,3.3,0.1,4.9,0.1c0.1,0,0.1,0,0.2,0c1.9,0,3.7,0,5.6,0
				c19.8,0.1,39.7-1.5,59.1-4.7c0,0,0,0,0.1,0c12.7,17.8,27.1,34.3,42.9,49.5c14.8,14.8,30.9,28.2,48.1,40.2c0,0,0,0,0,0
				c0,0,0,0.1,0,0.1c-3.3,19.8-4.9,39.9-4.8,60c0,1.8-0.1,3.7-0.1,5.6v0.2c0,1.7,0.1,3.4,0.1,5.1
				C3150.9,1938.9,3152.8,1958.7,3156.3,1978.3z"/>
			<path class="st2" d="M3155.5,1848.1l0.8,0.7c-0.2-0.2-0.6-0.4-0.8-0.5L3155.5,1848.1z"/>
			<path class="st2" d="M3155.6,1847L3155.6,1847L3155.6,1847C3155.6,1847,3155.6,1847,3155.6,1847z"/>
			<path class="st2" d="M3155.6,1847.1l-0.1,1l-0.1-0.1C3155.5,1847.7,3155.5,1847.4,3155.6,1847.1z"/>
			<path class="st2" d="M3155.4,1848L3155.4,1848l0.1,0.2c0,0-0.1-0.1-0.1-0.1C3155.4,1848.1,3155.4,1848,3155.4,1848z"/>
			<path class="st2" d="M3155.5,1848.2l-0.7,9.6c-2.6,16.7-4,33.6-4.2,50.5c-0.1-20.1,1.6-40.3,4.8-60
				C3155.4,1848.2,3155.4,1848.1,3155.5,1848.2C3155.4,1848.1,3155.5,1848.2,3155.5,1848.2z"/>
			<path class="st2" d="M3155.4,1848c0,0,0,0.1,0,0.1C3155.4,1848.1,3155.4,1848.1,3155.4,1848c-17.2-11.9-33.3-25.3-48.1-40.1
				c12.6,12.1,26,23.3,40.3,33.6L3155.4,1848z"/>
			<path class="st2" d="M3150.6,1914.1l4.8,53.6c-2.7-16.2-4.3-32.4-4.8-48.6C3150.6,1917.4,3150.6,1915.8,3150.6,1914.1z"/>
			<path class="st2" d="M3154.8,1857.8l-4.2,56.1c0-1.9-0.1-3.8-0.1-5.7C3150.8,1891.4,3152.2,1874.5,3154.8,1857.8z"/>
			<path class="st2" d="M3107.3,1807.9l40.3,33.6C3133.3,1831.2,3119.9,1820,3107.3,1807.9z"/>
			<path class="st2" d="M3147.2,1986l-38.4,31.8C3120.9,2006.4,3133.7,1995.8,3147.2,1986z"/>
			<path class="st2" d="M3108.1,2018.5l-0.7,0.8c-12.6,12.6-24.3,26.1-35,40.3c0,0,0,0,0,0.1l-8.7,10c0,0-0.1,0-0.1,0
				C3076.7,2051.4,3091.6,2034.2,3108.1,2018.5z"/>
			<path class="st2" d="M3107.4,2019.3l-35,40.3C3083.1,2045.4,3094.8,2031.9,3107.4,2019.3z"/>
			<path class="st2" d="M3071.5,1766.4l35.8,41.5C3094.3,1795,3082.4,1781.1,3071.5,1766.4z"/>
			<path class="st2" d="M3071.5,1766.4c10.9,14.7,22.8,28.6,35.8,41.5c-15.9-15.2-30.2-31.7-42.9-49.5c0,0,0.1,0,0.1,0
				L3071.5,1766.4z"/>
			<path class="st2" d="M3064.4,1758.3l1.1-0.1C3065.2,1758.3,3064.8,1758.3,3064.4,1758.3L3064.4,1758.3z"/>
			<path class="st2" d="M3064.9,2069.9l-1.3-0.1l0.1-0.1c0,0,0,0,0,0C3064.1,2069.8,3064.5,2069.8,3064.9,2069.9z"/>
			<path class="st2" d="M3064.4,1758.3L3064.4,1758.3c0,0.1,0,0.1-0.1,0.1c0,0,0-0.1-0.1-0.1c0,0,0,0,0,0L3064.4,1758.3z"/>
			<path class="st2" d="M3063.7,1757.4l0.7,0.8l-0.1,0C3064.1,1758,3063.9,1757.7,3063.7,1757.4
				C3063.7,1757.4,3063.7,1757.4,3063.7,1757.4z"/>
			<path class="st2" d="M3064.3,1758.3C3064.3,1758.3,3064.3,1758.4,3064.3,1758.3C3064.3,1758.4,3064.3,1758.4,3064.3,1758.3
				c-19.5,3.3-39.3,4.8-59.1,4.8c16.3-0.2,32.6-1.6,48.8-4L3064.3,1758.3C3064.3,1758.3,3064.3,1758.3,3064.3,1758.3z"/>
			<path class="st2" d="M3063.6,1757.3l0.1,0.1c0,0,0,0,0,0C3063.7,1757.4,3063.6,1757.3,3063.6,1757.3z"/>
			<path class="st2" d="M3063.7,2069.7L3063.7,2069.7l-0.1,0.1C3063.6,2069.8,3063.6,2069.7,3063.7,2069.7
				C3063.6,2069.7,3063.6,2069.7,3063.7,2069.7C3063.6,2069.7,3063.7,2069.7,3063.7,2069.7z"/>
			<path class="st2" d="M3063.6,2069.7C3063.6,2069.7,3063.6,2069.7,3063.6,2069.7c0,0.1-0.1,0.1-0.1,0.1l-12.6-1.2
				c-15.5-2.4-31-3.8-46.6-4.3l-1.6-0.2C3023.2,2064.3,3043.5,2066.2,3063.6,2069.7z"/>
			<path class="st2" d="M3063.6,2069.8l-0.7,0.8C3063.1,2070.3,3063.4,2070.1,3063.6,2069.8L3063.6,2069.8z"/>
			<path class="st2" d="M2999.6,1763l54.3-4c-16.1,2.4-32.4,3.8-48.8,4C3003.3,1763.1,3001.5,1763,2999.6,1763z"/>
			<path class="st2" d="M3051,2068.6l-46.6-4.3C3019.9,2064.8,3035.5,2066.2,3051,2068.6z"/>
			<path class="st2" d="M3002.4,2064.2l-1.4,0.1c-17.7,0-35.5,1.2-53.1,3.8l-12.1,0.8c0,0-0.1-0.1-0.1-0.1c0,0,0,0,0,0
				C2957.7,2065.2,2980,2063.7,3002.4,2064.2z"/>
			<path class="st2" d="M3001,2064.3l-53.1,3.8C2965.5,2065.5,2983.2,2064.3,3001,2064.3z"/>
			<path class="st3" d="M3000,2277.7c0,9.8-0.2,19.5-0.7,29.2c-0.2,3.2-0.3,6.3-0.6,9.5c-0.1,1.2-0.2,2.4-0.2,3.7
				c-0.8,11-1.9,22-3.2,32.8c0,0,0,0.1,0,0.1c-0.5,3.8-1,7.5-1.6,11.2c-0.3,1.9-0.6,3.8-0.9,5.6
				c-33.1,210.2-177.6,383.4-371.4,457.8c-65.9,25.3-137.5,39.2-212.4,39.2c-116,0-227.2-20.2-330.2-57.1
				c-163.7-58.7-306.8-159.8-415.6-289.9l51.6-623.9c46.7,98.9,111.1,191.8,193.1,273.8c46.1,46.1,97.8,83,153,110.7
				c210.4,105.8,470.5,78.1,654-83.4c0,0,0.1-0.1,0.1-0.1c2.8-2.5,5.6-5,8.4-7.5c3-2.7,6-5.5,8.9-8.4c1.6-1.5,3.1-3,4.7-4.5
				c1.8-1.8,3.6-3.6,5.4-5.3c0,0,0.1-0.1,0.1-0.1c1.7-1.7,3.3-3.4,4.9-5c2.5-2.6,5-5.2,7.4-7.9c1.6-1.7,3.1-3.5,4.6-5.2
				c1.6-1.8,3.1-3.6,4.6-5.4c0.8-0.9,1.5-1.8,2.3-2.7c8.3-10.1,16-20.5,23-31.2c0.9-1.4,1.8-2.8,2.7-4.2c0.3-0.5,0.6-0.9,0.9-1.4
				c0.3-0.5,0.7-1.1,1-1.6c2.8-4.4,5.4-8.8,7.9-13.2c1.1-2,2.2-3.9,3.3-5.9c2.7-5,5.4-10.1,7.8-15.3c0.5-1,1-2.1,1.5-3.1
				c2.4-5.1,4.7-10.3,6.9-15.4c1.3-3,2.5-6.1,3.7-9.1c0.1-0.1,0.1-0.3,0.2-0.4c8.1-21,14.1-42.6,18.2-64.4c0.4,0.2,0.8,0.5,1,0.7
				c3.1,2.1,6.2,4.3,9.2,6.5l38.2,31.8c0.2,0.2,0.5,0.5,0.7,0.7l35.5,40.9c2.2,2.9,4.3,5.9,6.4,8.9c0.2,0.3,0.5,0.6,0.7,1
				c0,0,0,0.1,0.1,0.1c0,0,0,0-0.1,0c37.7,54.3,61,119.4,64.4,189.7C2999.9,2265.7,3000,2271.7,3000,2277.7z"/>
			<path class="st3" d="M3000,398.5l-516.6,141.1C2633.4,450.2,2810.4,398.5,3000,398.5z"/>
			<path class="st1" d="M2441.8,3261.3l558.2,167.3C2792.6,3428.6,2600.2,3366.8,2441.8,3261.3z"/>
			<path class="st2" d="M2947.2,1758.4l52.2,4.6c-1.6,0-3.3,0-4.9,0C2978.7,1762.4,2962.9,1760.9,2947.2,1758.4z"/>
			<path class="st2" d="M2935.3,2070.1c37.7,54.3,60.9,119.4,64.3,189.7C2996.2,2189.5,2972.9,2124.4,2935.3,2070.1
				C2935.2,2070.1,2935.2,2070.1,2935.3,2070.1z"/>
			<path class="st3" d="M2483.4,539.6l498.8,88.8c-97.7,44-188.8,105.8-268.6,185.6c-51.9,52-91.3,111.9-118.3,176.2
				c-13.8,32.8-24.3,66.8-31.6,101.5c-0.3,1.2-0.5,2.4-0.7,3.6c-0.5,2.3-0.9,4.5-1.4,6.8c0,0,0,0.1,0,0.1c-0.4,2.3-0.9,4.6-1.3,6.8
				c-0.4,2.4-0.8,4.7-1.2,7.1c-0.6,3.4-1.1,6.9-1.6,10.4c-0.2,1.3-0.4,2.5-0.5,3.8c-0.6,4.2-1.1,8.4-1.6,12.6
				c-0.4,3.2-0.7,6.5-1.1,9.7c-17.6,174.2,43.2,358.5,181,496.3c57.4,57.4,127.8,93.3,200.4,107.4c-0.2,0.3-0.5,0.6-0.6,0.9
				c-1.9,2.8-3.9,5.5-5.9,8.3l-36.5,42.3l-40.8,34c-2.8,2-5.5,3.9-8.4,5.8c0,0,0-0.1,0-0.1l0,0.1c0,0,0,0,0,0
				c-0.3,0.3-0.7,0.5-1,0.7c0,0,0-0.1,0-0.1c-30.6,20.5-64.6,36.8-101.1,48c-36.4,11.2-75.3,17.2-115.8,17.2
				c-267.5,0-494.5-164.7-574.7-393.1c-1.9-5.3-3.7-10.7-5.4-16.1c-0.6-1.8-1.2-3.7-1.7-5.5c-10.5-34.5-17.7-70.2-21.2-107
				c-0.6-6.7-1.2-13.4-1.6-20.1c-0.1-1.2-0.1-2.3-0.2-3.5c-0.1-1.9-0.2-3.9-0.3-5.8c-0.2-3.4-0.3-6.9-0.3-10.3
				c-0.1-4.5-0.2-8.9-0.2-13.4c0-15.9,0.4-31.6,1.2-47.3c4.9-95.8,24.8-187.8,57.5-273.9C2154.3,818,2298.3,650,2483.4,539.6z"/>
			<path class="st2" d="M2947.2,1758.4c15.7,2.5,31.5,4.1,47.3,4.6c-19.5-0.3-39-2.1-58.1-5.5c0,0,0.1-0.1,0.1-0.1L2947.2,1758.4z"
				/>
			<path class="st2" d="M2937.1,1756.4c0,0.1-0.1,0.1-0.1,0.2c0,0,0,0-0.1,0L2937.1,1756.4z"/>
			<path class="st2" d="M2936.9,1756.6C2936.9,1756.6,2937,1756.6,2936.9,1756.6c-0.1,0.3-0.4,0.6-0.5,0.8c0,0,0,0,0,0l-0.1,0
				L2936.9,1756.6z"/>
			<path class="st2" d="M2936.5,2069.8l-0.8-0.9l0.1,0C2936.1,2069.2,2936.3,2069.4,2936.5,2069.8z"/>
			<path class="st2" d="M2936.4,1757.4C2936.4,1757.4,2936.4,1757.5,2936.4,1757.4C2936.3,1757.5,2936.3,1757.5,2936.4,1757.4
				c-0.1,0.1-0.2,0.1-0.2,0.1l0.1-0.1L2936.4,1757.4z"/>
			<path class="st2" d="M2936.3,1757.5C2936.3,1757.5,2936.3,1757.5,2936.3,1757.5c-12,16.8-25.6,32.7-40.4,47.3
				c12-12.2,23.1-25.3,33.3-39.2l7-8.1C2936.2,1757.5,2936.2,1757.5,2936.3,1757.5z"/>
			<path class="st2" d="M2936.2,1757.4L2936.2,1757.4c-0.4,0.1-0.8,0-1.1-0.1L2936.2,1757.4z"/>
			<path class="st2" d="M2935.9,2068.9l-0.1,0l-0.1-0.1c0,0,0,0,0.1,0c0,0,0.1,0,0.1,0C2935.8,2068.8,2935.8,2068.8,2935.9,2068.9
				C2935.8,2068.8,2935.8,2068.9,2935.9,2068.9z"/>
			<path class="st2" d="M2935.8,1756.3C2935.8,1756.3,2935.8,1756.4,2935.8,1756.3c-72.7-14-143.1-49.9-200.5-107.3
				c-137.8-137.8-198.6-322.1-181-496.3c-17.5,174.2,43.3,358.5,181,496.2C2792.7,1706.3,2863.1,1742.2,2935.8,1756.3z"/>
			<path class="st2" d="M2935.8,2068.8C2935.8,2068.8,2935.7,2068.8,2935.8,2068.8c-0.1,0-0.1,0-0.2,0l-7.5-8.7
				c-10.8-14.5-22.7-28.2-35.5-40.9l-0.6-0.7C2908.2,2033.9,2922.8,2050.8,2935.8,2068.8z"/>
			<path class="st2" d="M2935.7,2068.9l-1.2,0.1C2934.9,2068.9,2935.3,2068.9,2935.7,2068.9L2935.7,2068.9z"/>
			<path class="st2" d="M2892.7,1807.9l36.5-42.3c-10.2,13.9-21.3,27-33.3,39.2c-0.1,0.1-0.1,0.1-0.2,0.2
				C2894.7,1806,2893.7,1806.9,2892.7,1807.9z"/>
			<path class="st2" d="M2928.1,2060.1l-35.5-40.9C2905.5,2032,2917.4,2045.7,2928.1,2060.1z"/>
			<path class="st3" d="M2621.4,2827.7c193.8-74.5,338.3-247.7,371.4-457.8c-33.1,210.2-177.7,383.5-371.4,457.9
				c-65.9,25.3-137.6,39.2-212.4,39.2c-116,0-227.2-20.1-330.2-57.1l363,451.4l-0.1,0.1l-513-276.4l-265.5-465
				c108.8,130.1,251.9,231.2,415.6,289.9c103,36.9,214.2,57.1,330.2,57.1C2483.9,2866.9,2555.5,2853,2621.4,2827.7z"/>
			<path class="st2" d="M2892.7,1807.9c1-1,2-1.9,3-2.9C2894.7,1806,2893.7,1807,2892.7,1807.9c-0.9,1-1.9,1.9-2.8,2.8
				C2890.8,1809.8,2891.8,1808.8,2892.7,1807.9z"/>
			<path class="st2" d="M2892.7,1807.9c-0.9,0.9-1.9,1.9-2.8,2.8c-11.9,11.2-24.6,21.6-38,31.2L2892.7,1807.9z"/>
			<path class="st2" d="M2891.9,2018.5l-38.2-31.8C2867.2,1996.4,2880,2007.1,2891.9,2018.5z"/>
			<path class="st2" d="M2889.9,1810.7c-14.3,13.9-29.7,26.7-46.2,38.1c0,0,0-0.1,0-0.1l8.2-6.8
				C2865.3,1832.3,2878,1821.8,2889.9,1810.7z"/>
			<path class="st2" d="M2844.6,1979c16.9,11.8,32.7,25,47.3,39.5c-11.9-11.4-24.7-22.1-38.2-31.8l-9.1-7.6
				C2844.6,1979.1,2844.6,1979,2844.6,1979z"/>
			<path class="st2" d="M2849.4,1911.2c0.5,22.8-1.1,45.5-4.8,67.8c0,0-0.1-0.1-0.1-0.1l0.8-10.9
				C2848.1,1949.2,2849.5,1930.2,2849.4,1911.2z"/>
			<path class="st2" d="M2849.4,1911.2c0.1,19-1.3,38-4.1,56.8L2849.4,1911.2z"/>
			<path class="st3" d="M2849.4,1911.1C2849.4,1911.1,2849.4,1911.2,2849.4,1911.1l-4.1,56.9c-0.5,3.4-1.1,6.8-1.7,10.2
				c0,0,0,0.1,0,0.1c-0.1,0.4-0.1,0.7-0.2,1.1c0,0,0,0.1,0,0.1c0,0-0.1,0-0.1,0c-4,21.9-10.1,43.5-18.1,64.5
				c-0.1,0.1-0.1,0.3-0.2,0.4c-1.2,3-2.4,6.1-3.7,9.1c-2.2,5.2-4.4,10.3-6.9,15.4c-0.5,1-1,2.1-1.5,3.1c-2.5,5.1-5.1,10.2-7.8,15.3
				c-1.1,2-2.2,4-3.3,5.9c-2.5,4.5-5.2,8.9-7.9,13.2c-0.3,0.5-0.6,1.1-1,1.6c-0.3,0.5-0.6,0.9-0.9,1.4c-0.9,1.4-1.8,2.8-2.7,4.2
				c-7,10.7-14.7,21.1-23,31.2c-0.8,0.9-1.5,1.8-2.3,2.7c-1.5,1.8-3.1,3.6-4.6,5.4c-1.5,1.8-3.1,3.5-4.6,5.2
				c-2.4,2.7-4.9,5.3-7.4,7.9c-1.6,1.7-3.3,3.4-4.9,5c0,0-0.1,0.1-0.1,0.1c-1.8,1.8-3.6,3.6-5.4,5.3c-1.6,1.5-3.1,3-4.7,4.5
				c-3,2.8-5.9,5.6-8.9,8.4c-2.8,2.6-5.6,5.1-8.4,7.5c0,0-0.1,0.1-0.1,0.1c-183.3,161.4-443.4,189.1-653.9,83.3
				c-55.2-27.7-106.9-64.6-153-110.7c-82-82-146.4-174.8-193.1-273.8c-81.7-172.9-109.4-364.4-83.1-549l447-329.6
				c-32.7,86.1-52.6,178.2-57.5,274c-0.8,15.7-1.2,31.4-1.2,47.3c0,4.5,0.1,8.9,0.2,13.4c0.1,3.4,0.2,6.9,0.3,10.3
				c0.1,1.9,0.2,3.9,0.3,5.8c0.1,1.2,0.1,2.3,0.2,3.5c0.4,6.7,0.9,13.4,1.6,20.1c3.5,36.8,10.7,72.6,21.2,107
				c0.6,1.8,1.1,3.7,1.7,5.5c1.7,5.4,3.5,10.8,5.4,16.2c80.2,228.4,307.2,393.1,574.7,393.1c80.8,0,155.6-24.2,216.8-65.2
				c0,0,0,0,0,0c0.1,0.4,0.1,0.7,0.2,1.1c0.7,3.7,1.4,7.5,2,11.2l4.7,50.1C2849.4,1910.9,2849.4,1911,2849.4,1911.1z"/>
			<path class="st2" d="M2849.4,1910.8l-4.7-50.1C2847.4,1877.3,2849,1894.1,2849.4,1910.8z"/>
			<path class="st2" d="M2843.7,1848.8c3.7,20.5,5.6,41.2,5.7,62c-0.4-16.7-1.9-33.5-4.7-50.1L2843.7,1848.8
				C2843.6,1848.8,2843.7,1848.8,2843.7,1848.8z"/>
			<path class="st2" d="M2844.6,1979c0,0,0,0.1,0,0.1l-0.1-0.1l0-0.1C2844.5,1978.9,2844.6,1979,2844.6,1979z"/>
			<path class="st2" d="M2844.5,1979L2844.5,1979c0,0.4,0,0.7-0.1,1.1L2844.5,1979z"/>
			<path class="st2" d="M2844.5,1978.9l0,0.1l-0.9-0.7C2843.9,1978.5,2844.2,1978.7,2844.5,1978.9z"/>
			<path class="st2" d="M2843.7,1848.7c0,0,0,0.1,0,0.1c0,0-0.1,0-0.1,0.1L2843.7,1848.7L2843.7,1848.7z"/>
			<path class="st2" d="M2843.7,1848.7L2843.7,1848.7l-0.2-1h0C2843.6,1848,2843.6,1848.4,2843.7,1848.7z"/>
			<path class="st2" d="M2843.6,1848.8l0,0.1c-0.3,0.3-0.6,0.4-0.9,0.6L2843.6,1848.8z"/>
			<path class="st2" d="M2843.5,1847.6C2843.5,1847.6,2843.5,1847.7,2843.5,1847.6L2843.5,1847.6L2843.5,1847.6z"/>
			<path class="st2" d="M2843.3,1979.5C2843.3,1979.5,2843.4,1979.5,2843.3,1979.5c-4,21.9-10.1,43.5-18.1,64.5
				C2833.2,2023,2839.3,2001.4,2843.3,1979.5z"/>
			<path class="st2" d="M2842.5,1848.3C2842.5,1848.3,2842.5,1848.4,2842.5,1848.3C2842.5,1848.4,2842.5,1848.4,2842.5,1848.3
				c-61.2,41.1-136,65.3-216.8,65.3c-267.5,0-494.5-164.7-574.7-393.1c-1.9-5.4-3.7-10.8-5.4-16.2c1.7,5.4,3.5,10.8,5.4,16.1
				c80.2,228.4,307.2,393.1,574.7,393.1c40.4,0,79.3-6,115.8-17.2C2777.9,1885.2,2811.9,1868.8,2842.5,1848.3z"/>
			<path class="st2" d="M2821.4,2053.5c1.3-3,2.5-6.1,3.7-9.1C2823.9,2047.5,2822.6,2050.5,2821.4,2053.5z"/>
			<path class="st2" d="M2793,2108.1c0.3-0.5,0.7-1.1,1-1.6C2793.7,2107,2793.3,2107.6,2793,2108.1z"/>
			<path class="st2" d="M2764.1,2147.5c0.8-0.9,1.5-1.8,2.3-2.7C2765.6,2145.7,2764.9,2146.6,2764.1,2147.5z"/>
			<path class="st2" d="M2759.5,2152.9c-1.5,1.8-3.1,3.5-4.6,5.2C2756.4,2156.4,2758,2154.7,2759.5,2152.9z"/>
			<path class="st2" d="M2747.4,2166.1c-1.6,1.7-3.3,3.4-4.9,5C2744.2,2169.4,2745.8,2167.8,2747.4,2166.1z"/>
			<path class="st3" d="M2061,2280.4c210.5,105.8,470.5,78,653.9-83.3c-183.4,161.5-443.5,189.2-654,83.4
				c-55.2-27.7-106.9-64.6-153-110.7c-82-82-146.4-174.9-193.1-273.8l-51.6,623.9l-220.6-606.3l189.2-566.7
				c-26.3,184.6,1.4,376.1,83.1,549c46.7,99,111.1,191.8,193.1,273.8C1954.1,2215.8,2005.8,2252.7,2061,2280.4z"/>
			<path class="st3" d="M2483.4,539.6l-584.6,272.7C2061.6,649.5,2269.5,558.7,2483.4,539.6z"/>
			<path class="st3" d="M1898.8,812.3l584.6-272.7C2298.3,650,2154.3,818,2078.8,1017.4c-32.7,86.1-52.5,178.1-57.5,273.9
				c4.9-95.8,24.8-187.9,57.5-274l-447,329.6l266.9-534.5L1898.8,812.3z"/>
			<path class="st3" d="M1928.7,2984.9l513,276.4C2255.1,3223.9,2075.4,3131.6,1928.7,2984.9z"/>
			<path class="st2" d="M2020.9,1368.1c0.1,1.2,0.1,2.3,0.2,3.5C2021,1370.5,2020.9,1369.3,2020.9,1368.1z"/>
			<path class="st3" d="M1663.2,2519.9l265.5,465C1794.7,2850.8,1706,2689.2,1663.2,2519.9z"/>
			<path class="st3" d="M1898.7,812.4l-266.9,534.5C1659.7,1150.8,1748.6,962.5,1898.7,812.4z"/>
			<path class="st3" d="M1442.6,1913.6l220.6,606.3C1525.4,2355.1,1442.6,2143.9,1442.6,1913.6z"/>
			<path class="st3" d="M1631.8,1346.9l-189.2,566.7C1442.6,1701.4,1512.9,1505.3,1631.8,1346.9z"/>
		</g>
		<g>
			<path class="st5" d="M3000,398.5c207.4,0,399.8,61.8,558.2,167.3"/>
			<path class="st5" d="M3063.7,1757.4c0.3-0.1,0.6-0.1,1-0.1c-40.9-58.9-64.8-130.5-64.8-207.7c0-88.2,19.5-171.9,54.3-247"/>
			<path class="st5" d="M3053.9,1759c3.2-0.5,6.4-1,9.6-1.5c0.1,0,0.1,0,0.2-0.1"/>
			<path class="st5" d="M2994.5,1763c1.7,0.1,3.3,0.1,4.9,0.1c0.1,0,0.1,0,0.2,0c1.9,0,3.7,0,5.6,0"/>
			<path class="st5" d="M2937,1756.6C2937,1756.6,2937,1756.6,2937,1756.6c3.4,0.6,6.8,1.2,10.2,1.8"/>
			<path class="st5" d="M2935.7,1756.4C2935.8,1756.4,2935.8,1756.4,2935.7,1756.4c0.4,0.1,0.8,0.2,1.2,0.2"/>
			<path class="st5" d="M2557,1130.4c-0.6,4.2-1.1,8.4-1.6,12.6"/>
			<path class="st5" d="M2559.1,1116.2c-0.6,3.4-1.1,6.9-1.6,10.4"/>
			<path class="st5" d="M2561.6,1102.2c-0.4,2.3-0.8,4.6-1.3,6.8"/>
			<path class="st5" d="M2563,1095.3c-0.5,2.3-0.9,4.5-1.4,6.8"/>
			<path class="st5" d="M3558.2,565.9c-194.5-39-396.3-18.3-576,62.6c-97.7,44-188.8,105.9-268.6,185.6
				c-51.9,51.9-91.3,111.8-118.3,176.2c-13.7,32.8-24.2,66.8-31.6,101.4"/>
			<path class="st5" d="M3064.3,1758.3c-0.2-0.2-0.4-0.6-0.6-0.8c-0.1,0-0.1-0.1-0.1-0.1"/>
			<path class="st5" d="M3107.3,1807.9c-15.9-15.2-30.2-31.7-42.9-49.5"/>
			<path class="st5" d="M4368.1,2480.3c118.9-158.4,189.2-354.4,189.2-566.7"/>
			<path class="st5" d="M3155.4,1967.7c0.6,3.3,1.1,6.5,1.8,9.8c0,0.1,0,0.2,0.1,0.2c0.1,0.3,0.1,0.6,0.1,1
				c61.2-41.1,136-65.2,216.8-65.2c94.1,0,183.2,20.4,262.7,56.8"/>
			<path class="st5" d="M3150.6,1908.2c0,1.8-0.1,3.7-0.1,5.6v0.2c0,1.7,0.1,3.4,0.1,5.1"/>
			<path class="st5" d="M3156.3,1848.7C3156.3,1848.8,3156.3,1848.8,3156.3,1848.7c-0.6,3.1-1.1,6-1.5,9"/>
			<path class="st5" d="M3156.5,1847.7c-0.1,0.4-0.1,0.7-0.2,1"/>
			<path class="st5" d="M3210.6,1713.3c-24.1,36.6-41,76.6-50.7,117.9"/>
			<path class="st5" d="M3214.4,1707.6c-1.3,1.9-2.6,3.8-3.8,5.7"/>
			<path class="st5" d="M4368.1,2480.3c26.3-184.6-1.4-376.1-83-549"/>
			<path class="st5" d="M3156.3,1978.4C3156.3,1978.4,3156.3,1978.4,3156.3,1978.4c-17.2,12-33.3,25.4-48.2,40.1"/>
			<path class="st5" d="M3157.2,1977.7c-0.3,0.2-0.6,0.4-0.9,0.6"/>
			<line class="st5" x1="3157.2" y1="1977.7" x2="3157.3" y2="1977.7"/>
			<path class="st5" d="M2441.8,3261.3c158.4,105.5,350.8,167.3,558.2,167.3"/>
			<path class="st5" d="M2992.8,2369.9c-33.1,210.2-177.7,383.5-371.4,457.9c-65.9,25.3-137.6,39.2-212.4,39.2
				c-116,0-227.2-20.1-330.2-57.1"/>
			<path class="st5" d="M2995.2,2353c-0.5,3.8-1,7.5-1.6,11.2"/>
			<path class="st5" d="M2998.5,2320.1c-0.8,11-1.9,22-3.2,32.8"/>
			<path class="st5" d="M2999.3,2306.9c-0.2,3.2-0.3,6.3-0.6,9.5"/>
			<path class="st5" d="M2947.9,2068.1c-3.8,0.6-7.6,1.2-11.4,1.8c-0.4,0.1-0.8,0.1-1.2,0.2"/>
			<path class="st5" d="M3004.4,2064.4c-0.5,0-1.1,0-1.6-0.1c-0.1,0-0.2,0-0.3,0c-0.5,0-1,0-1.5,0"/>
			<path class="st5" d="M2441.8,3261.3c194.4,39,396.3,18.3,575.9-62.6c97.7-44,188.9-105.8,268.6-185.6
				c51.9-51.9,91.3-111.8,118.3-176.1c89.7-213.9,41.9-476.9-139.9-658.7c-57.4-57.4-127.7-93.3-200.4-107.4c0,0-0.1,0-0.1,0
				c-0.4-0.1-0.8-0.2-1.2-0.2c-4-0.8-8-1.4-12-2.1"/>
			<path class="st5" d="M2935.8,2068.8c-13-18-27.6-34.9-43.8-50.3"/>
			<path class="st5" d="M2936.5,2069.8c-0.2-0.4-0.4-0.6-0.6-0.9"/>
			<path class="st5" d="M1442.6,1913.6c0-212.2,70.3-408.3,189.2-566.7"/>
			<path class="st5" d="M2021.3,1291.3c4.9-95.8,24.8-187.9,57.5-274"/>
			<path class="st5" d="M2020.6,1362.3c-0.2-3.4-0.3-6.9-0.3-10.3"/>
			<path class="st5" d="M2043.9,1498.8c-10.5-34.5-17.7-70.2-21.2-107"/>
			<path class="st5" d="M2844.7,1860.7c-0.6-3.8-1.3-7.5-2-11.2c-0.1-0.4-0.1-0.7-0.2-1.1"/>
			<path class="st5" d="M2849.4,1911.2C2849.4,1911.2,2849.4,1911.1,2849.4,1911.2c0-0.2,0-0.3,0-0.4"/>
			<path class="st5" d="M2843.4,1979.5c0-0.1,0-0.1,0-0.1c0.1-0.4,0.1-0.7,0.2-1.1c0,0,0-0.1,0-0.1c0.6-3.4,1.2-6.8,1.7-10.2"/>
			<path class="st5" d="M2813,2072.1c0.5-1,1-2.1,1.5-3.1"/>
			<path class="st5" d="M2801.9,2093.2c1.1-2,2.2-3.9,3.3-5.9"/>
			<path class="st5" d="M2789.4,2113.6c0.9-1.4,1.8-2.8,2.7-4.2"/>
			<path class="st5" d="M2732.3,2181.1c1.6-1.5,3.1-3,4.7-4.5"/>
			<path class="st5" d="M2715,2196.9c2.8-2.5,5.6-5,8.4-7.5"/>
			<path class="st5" d="M1631.8,1346.9c-26.3,184.6,1.4,376.1,83.1,549c46.7,99,111.1,191.8,193.1,273.8
				c46.1,46.1,97.8,83,153,110.7c210.5,105.8,470.5,78,653.9-83.3"/>
			<path class="st5" d="M2843.7,1848.8c16.4-11.4,31.9-24.2,46.2-38.1"/>
			<path class="st5" d="M2842.7,1849.5c0.3-0.2,0.6-0.4,0.9-0.6"/>
			<path class="st5" d="M2483.4,539.6c150-89.4,327-141.1,516.6-141.1"/>
			<path class="st5" d="M2936.4,1757.4C2936.4,1757.4,2936.4,1757.4,2936.4,1757.4c0.2-0.3,0.4-0.5,0.6-0.8c0.1-0.1,0.1-0.1,0.1-0.2
				"/>
			<path class="st5" d="M2895.9,1804.8c14.8-14.6,28.4-30.4,40.4-47.3"/>
			<path class="st5" d="M1442.6,1913.6c0,230.3,82.8,441.5,220.6,606.3"/>
			<path class="st5" d="M2844.5,1978.9c-0.3-0.2-0.6-0.4-0.9-0.6"/>
			<path class="st5" d="M2891.9,2018.5c-14.6-14.5-30.4-27.7-47.3-39.5"/>
			<path class="st5" d="M3000,3428.6c189.6,0,366.5-51.6,516.4-141"/>
			<path class="st5" d="M3063.5,2069.8c-0.2,0.3-0.5,0.6-0.6,0.8"/>
			<path class="st5" d="M3108.1,2018.5c-16.5,15.7-31.4,32.9-44.5,51.2"/>
			<path class="st5" d="M4336.8,1307.3c137.8,164.8,220.6,376,220.6,606.2"/>
			<path class="st5" d="M3155.5,1848.2c0.2,0.2,0.6,0.4,0.8,0.5v0c0,0,0.1,0,0.1,0.1"/>
			<path class="st5" d="M3107.3,1807.9c14.8,14.8,30.9,28.2,48.1,40.2c0,0,0,0,0,0"/>
			<path class="st5" d="M4071.3,842.3c134,134,222.7,295.7,265.5,465"/>
			<path class="st5" d="M3155.6,1847.1c-0.1,0.3-0.1,0.6-0.2,0.9c0,0,0,0.1,0,0.1c0,0,0,0.1,0,0.1c-3.3,19.8-4.9,39.9-4.8,60
				c0,1.9,0,3.8,0.1,5.7"/>
			<path class="st5" d="M3516.6,3287.6c213.9-19.1,421.8-109.9,584.6-272.7"/>
			<path class="st5" d="M3064.9,2069.9c-0.4-0.1-0.8-0.1-1.2-0.2c0,0,0,0,0,0c0,0-0.1,0-0.1,0c-20.1-3.5-40.4-5.4-60.8-5.5"/>
			<path class="st5" d="M1663.2,2519.9c42.8,169.3,131.5,330.9,265.5,465"/>
			<path class="st5" d="M1663.2,2519.9c108.8,130.1,251.9,231.2,415.6,289.9c103,36.9,214.2,57.1,330.2,57.1
				c74.9,0,146.5-13.9,212.4-39.2c193.8-74.5,338.3-247.7,371.4-457.8c0.3-1.9,0.6-3.8,0.9-5.6c0.6-3.7,1.1-7.5,1.6-11.2
				c0,0,0-0.1,0-0.1c1.4-10.8,2.5-21.8,3.2-32.8c0.1-1.2,0.2-2.4,0.2-3.7c0.2-3.2,0.4-6.3,0.6-9.5c0.5-9.7,0.7-19.4,0.7-29.2
				c0-6-0.1-12-0.4-17.9c-3.4-70.3-26.6-135.4-64.3-189.7c0,0,0-0.1-0.1-0.1c-0.2-0.4-0.5-0.7-0.7-1c-2.1-3-4.2-5.9-6.4-8.9
				c-10.8-14.5-22.7-28.2-35.5-40.9c-0.2-0.2-0.5-0.5-0.7-0.7c-11.9-11.4-24.7-22.1-38.2-31.8c-3-2.2-6.1-4.3-9.2-6.5
				c-0.3-0.2-0.6-0.5-1-0.7c0,0-0.1,0-0.1,0c-4,21.9-10.1,43.5-18.1,64.5c-0.1,0.1-0.1,0.3-0.2,0.4c-1.2,3-2.4,6.1-3.7,9.1
				c-2.2,5.2-4.4,10.3-6.9,15.4c-0.5,1-1,2.1-1.5,3.1c-2.5,5.1-5.1,10.2-7.8,15.3c-1.1,2-2.2,4-3.3,5.9c-2.5,4.5-5.2,8.9-7.9,13.2
				c-0.3,0.5-0.6,1.1-1,1.6c-0.3,0.5-0.6,0.9-0.9,1.4c-0.9,1.4-1.8,2.8-2.7,4.2c-7,10.7-14.7,21.1-23,31.2c-0.8,0.9-1.5,1.8-2.3,2.7
				c-1.5,1.8-3.1,3.6-4.6,5.4c-1.5,1.8-3.1,3.5-4.6,5.2c-2.4,2.7-4.9,5.3-7.4,7.9c-1.6,1.7-3.3,3.4-4.9,5c0,0-0.1,0.1-0.1,0.1
				c-1.8,1.8-3.6,3.6-5.4,5.3c-1.6,1.5-3.1,3-4.7,4.5c-3,2.8-5.9,5.6-8.9,8.4c-2.8,2.6-5.6,5.1-8.4,7.5c0,0-0.1,0.1-0.1,0.1
				c-183.4,161.5-443.5,189.2-654,83.4c-55.2-27.7-106.9-64.6-153-110.7c-82-82-146.4-174.9-193.1-273.8"/>
			<path class="st5" d="M2844.4,1980.1c0.1-0.3,0.1-0.7,0.2-1c0,0,0-0.1,0-0.1c3.7-22.3,5.3-45,4.8-67.8"/>
			<path class="st5" d="M1898.8,812.3c162.8-162.8,370.7-253.6,584.6-272.7"/>
			<path class="st5" d="M4336.8,1307.3c-108.8-130.1-251.8-231.2-415.6-289.9c-0.1,0-0.2-0.1-0.4-0.1c-102.9-36.8-214-57-329.8-57
				c-74.9,0-146.5,13.9-212.4,39.2c-133.3,51.2-243.3,149.1-309.7,273.7c-5.2,9.6-10,19.4-14.6,29.4
				c-34.8,75.1-54.2,158.7-54.2,246.8c0,77.2,23.9,148.8,64.8,207.7c0.2,0.3,0.5,0.7,0.7,1c1.9,2.8,3.9,5.6,6,8.3
				c10.9,14.7,22.8,28.6,35.8,41.5c12.6,12.1,26,23.3,40.3,33.6c2.6,1.9,5.2,3.7,7.9,5.5c0,0,0.1,0,0.1,0.1v0
				c0.3,0.2,0.6,0.4,0.9,0.6c0,0,0,0,0,0c0.8-4.4,1.7-8.7,2.6-13.1c0.2-1.1,0.5-2.3,0.8-3.4c9.6-41.3,26.5-81.3,50.7-117.9
				c0,0,0,0,0.1-0.1c1.2-1.9,2.5-3.8,3.8-5.7c2-3,4.1-5.9,6.3-8.8c10.9-14.9,23.2-29.2,36.7-42.7
				c184.2-184.2,460.3-220.5,681.6-109.3c55.2,27.7,106.9,64.6,153,110.7c82,82,146.4,174.9,193.1,273.9"/>
			<path class="st5" d="M2843.5,1847.7c2.8-1.9,5.6-3.8,8.4-5.8c13.4-9.6,26.1-20,38-31.2c1-0.9,1.9-1.8,2.8-2.7c1-1,2-2,3-3
				c0.1-0.1,0.1-0.1,0.2-0.2c12-12.2,23.1-25.3,33.3-39.2c2-2.7,4-5.5,5.9-8.3c0.2-0.3,0.4-0.6,0.6-0.9c0,0,0-0.1,0.1-0.1
				c-72.7-14.1-143.1-50-200.5-107.4c-137.7-137.7-198.5-322-181-496.2c0.3-3.2,0.7-6.5,1.1-9.7c0.5-4.2,1-8.4,1.6-12.6
				c0.2-1.3,0.4-2.6,0.5-3.8c0.5-3.5,1.1-6.9,1.6-10.4c0.4-2.4,0.8-4.8,1.2-7.1c0.4-2.3,0.8-4.6,1.3-6.8c0,0,0-0.1,0-0.1
				c0.4-2.3,0.9-4.6,1.4-6.8c0.2-1.2,0.5-2.4,0.7-3.6c7.3-34.7,17.8-68.7,31.6-101.5c27-64.3,66.4-124.2,118.3-176.2
				c79.8-79.8,170.9-141.6,268.6-185.6"/>
			<path class="st5" d="M2483.4,539.6C2298.3,650,2154.3,818,2078.8,1017.4c-32.7,86.1-52.5,178.1-57.5,273.9
				c-0.8,15.7-1.2,31.4-1.2,47.3c0,4.5,0.1,8.9,0.2,13.4c0.1,3.4,0.2,6.9,0.3,10.3c0.1,1.9,0.2,3.9,0.3,5.8c0.1,1.2,0.1,2.3,0.2,3.5
				c0.4,6.7,0.9,13.4,1.6,20.1c3.6,36.8,10.8,72.6,21.2,107c0.6,1.8,1.1,3.7,1.7,5.5c1.7,5.4,3.5,10.8,5.4,16.2
				c80.2,228.4,307.2,393.1,574.7,393.1c80.8,0,155.6-24.2,216.8-65.2c0,0,0,0,0,0c0.3-0.2,0.7-0.4,1-0.7c0,0,0,0,0,0"/>
			<path class="st5" d="M2935.1,1757.3c0.3,0.1,0.7,0.2,1.1,0.2c0.1,0,0.1,0,0.1,0c0,0,0,0,0,0c19.2,3.4,38.6,5.2,58.1,5.5
				c1.6,0,3.3,0,4.9,0"/>
			<path class="st5" d="M3558.2,565.9c186.6,37.4,366.4,129.7,513,276.4"/>
			<path class="st5" d="M2999.6,1763c1.9,0,3.7,0.1,5.6,0.1c19.8,0.1,39.7-1.5,59.1-4.7c0,0,0,0,0.1,0c0,0,0.1,0,0.1,0
				c0.3-0.1,0.7-0.1,1-0.2"/>
			<path class="st5" d="M1631.8,1346.9c27.9-196.1,116.8-384.4,266.9-534.5"/>
			<path class="st5" d="M2849.4,1910.8c-0.1-20.8-2-41.5-5.7-62c0,0,0-0.1,0-0.1c-0.1-0.3-0.1-0.7-0.2-1c0,0,0-0.1,0-0.1"/>
			<path class="st5" d="M1928.7,2984.9c146.7,146.7,326.4,239,513,276.4"/>
			<path class="st5" d="M3002.4,2064.2c-22.4-0.5-44.7,1-66.6,4.6c0,0-0.1,0-0.1,0c0,0,0,0-0.1,0c-0.4,0.1-0.8,0.1-1.1,0.2"/>
			<path class="st5" d="M4101.2,3014.8c150.1-150.1,239-338.4,266.9-534.5"/>
			<path class="st5" d="M3516.6,3287.6c185.1-110.4,329.1-278.3,404.7-477.8c0-0.1,0.1-0.2,0.1-0.3
				c37.9-100.1,58.6-208.2,58.6-320.9c0-63.6-10.9-124.7-30.9-181.9c-47.6-135.7-147.1-248.9-276.1-318.4
				c-11.8-6.4-23.9-12.4-36.1-18c-79.4-36.3-168.5-56.7-262.5-56.7c-80.8,0-155.6,24.2-216.8,65.2c-0.3,0.2-0.7,0.4-1,0.7
				c-3.2,2.1-6.3,4.3-9.4,6.5c-13.6,9.8-26.4,20.4-38.4,31.8c-0.2,0.2-0.5,0.4-0.7,0.7c-0.3,0.3-0.5,0.5-0.8,0.8
				c-12.6,12.6-24.3,26.1-35,40.3c0,0,0,0,0,0.1c-2.5,3.4-5,6.8-7.4,10.2c-0.2,0.3-0.5,0.6-0.7,1c72.7,14.1,143.1,50,200.5,107.4
				c181.8,181.8,229.6,444.8,139.9,658.7c-27,64.3-66.4,124.2-118.3,176.1c-79.8,79.8-170.9,141.6-268.6,185.6"/>
			<path class="st5" d="M3156.5,1979.5c-0.1-0.3-0.1-0.7-0.2-1c0,0,0-0.1,0-0.1c0,0,0-0.1,0-0.1c-3.5-19.6-5.4-39.4-5.7-59.2
				c0-1.7,0-3.3,0-5"/>
		</g>
	</g>
</g>
<polygon class="st6" points="1096.7,2655.2 478,2655.2 750.5,1638.3 1369.1,1638.3 "/>
<text transform="matrix(0.9659 0 -0.2588 0.9659 596.1798 2214.1228)" class="st7 st8">A</text>
<text transform="matrix(0.9744 0 -0.225 0.9744 4700.7207 2214.1221)" class="st7 st9">S</text>
<polygon class="st10" points="3050.4,1992.4 2998.7,1965 2946.6,1991.8 2956.9,1934.6 2915.2,1893.8 2973.2,1885.8 2999.5,1833.8 
	3025.1,1886.1 3083,1894.8 3040.8,1935.1 "/>
</svg>
