<?xml version="1.0" encoding="utf-8"?>
<!-- Generator: Adobe Illustrator 25.2.3, SVG Export Plug-In . SVG Version: 6.00 Build 0)  -->
<svg version="1.1" id="Layer_1" xmlns="http://www.w3.org/2000/svg" xmlns:xlink="http://www.w3.org/1999/xlink" x="0px" y="0px"
	 viewBox="0 0 1280 1024" style="enable-background:new 0 0 1280 1024;" xml:space="preserve">
<style type="text/css">
	.st0{fill-rule:evenodd;clip-rule:evenodd;}
</style>
<path class="st0" d="M563.6,229.2c58.6-31.8,124.2-24.5,179.3,8.6c13.9,9.3,26.7,20,36.4,32.4c8,10.7,23.3,34.6-4.5,38.1
	c-10.7,0.7-29.1-9.9-44.4-13.5c-18.8-4.3-37.1-7.1-55.9-9.3c-34-2.8-67.6-0.7-99.5,6.4c-16,3.6-31.9,7.1-47.1,12.9
	c-7.2,2.8-21.1,9.9-24.6,0.7C493.1,282.3,542.8,241.3,563.6,229.2z M845.8,807.5l-0.7,0.7c23.3,9.3,31.9,32.4,21.1,50.9l2.1,0.7
	c12.5-18.5,39.9-25.3,63.8-16.4l0.7-0.7c-23.3-9.3-31.9-32.4-21.1-50.9l-2.1-0.7C898.2,808.2,869.8,816.4,845.8,807.5L845.8,807.5z
	 M720.3,907.5L720.3,907.5c12.5,6.4,18,18.5,11.5,28.8l0.7,0.7c7.2-9.3,21.8-13.5,34.7-9.3v-1.1c-12.5-5.6-18-17.8-11.5-28.1H755
	C748.8,909,733.5,912.5,720.3,907.5L720.3,907.5z M476.5,891.6l0.7,0.7c-27.3,10.7-39.9,38.1-26.7,60.2l-2.1,0.7
	c-5.9-10.7-18.8-18.5-31.9-23.2c-13.3-4.3-29.1-3.6-42.6,0.7l-0.7-0.7c13.3-4.3,24-15,29.1-25.3c5.2-10.7,4.5-23.2-2.1-34.6l2.1-0.7
	c5.9,10.7,18.8,18.5,31.9,22.1C447.7,897.2,462.9,897.2,476.5,891.6z M430.7,789.7l0.7,0.7c-24,9.3-34,31.8-23.3,50.3l-2.1,0.7
	c-5.2-9.3-15.2-15.7-27.3-18.5c-11.5-3.6-24-2.8-35.4,0.7l-0.7-0.7c11.5-4.3,20.5-12.1,24-21.3c4.5-9.3,3.5-19.2-2.1-28.8l2.1-0.7
	c5.2,9.3,15.2,15.7,26.7,18.5C406.1,794.6,419.3,794,430.7,789.7L430.7,789.7z M553.5,892.9L553.5,892.9
	c-5.9,2.8-10.7,7.1-13.3,12.1c-2.8,5-2.8,10.7,0.7,15.7h-0.7c-2.8-4.3-8-8.6-13.9-9.9c-5.9-2.1-13.3-2.1-19.5,0.7v-0.7
	c13.3-4.3,18.8-16.4,12.5-26.7h0.7C525,892.9,540.2,897.2,553.5,892.9z M607.9,767.6c2.1-0.7,3.5-0.7,5.2,0c2.8,0.7,5.2,2.8,5.9,4.3
	c5.2,7.1,43,8.6,50.6-0.7c2.8-3.6,8-4.3,12.5-2.8c3.5,2.1,5.9,5.6,4.5,8.6c-13.3,20-73.2,19.2-83.6-0.7
	C600.6,773.3,602.7,769,607.9,767.6L607.9,767.6z M737.2,651.9l-10.1,9.9c-2.8,2.8-8,3.6-12.5,0.7l0,0c-3.5-2.8-4.5-7.1-0.7-9.9l0,0
	l7.2-7.1c-3.5-2.8-4.5-6.4-2.8-9.3c2.8-2.8,8-4.3,12.5-2.1l0,0c8.7,4.3,19.5,6.4,29.9,5.6c10.7,0,21.8-2.1,31.2-6.4
	c3.5-2.1,10.1-0.7,12.5,2.1l0,0c2.8,2.8,2.1,7.1-2.8,9.3l0,0l-0.7,0.7l8,7.1c2.8,2.8,2.8,7.1-0.7,9.9c-3.5,2.8-8.7,2.8-13.3-0.7
	L782.4,651c-4.5,0.7-8,2.1-13.3,2.1v9.3c0.7,3.6-2.8,7.1-8,7.1c-4.5,0.7-8.7-2.8-10.1-6.4c0-0.7,0-0.7,0-0.7v-9.3
	C746.6,652.6,741.4,651.9,737.2,651.9L737.2,651.9z M502.9,651.9l-10.7,9.3c-2.8,2.8-8,3.6-12.5,0.7l0,0c-3.5-2.8-4.5-6.4-2.1-9.3
	l0,0l7.2-6.4l0,0c-4.5-2.8-5.2-6.4-2.8-9.3c2.8-3.6,8-4.3,12.5-2.8c8.7,4.3,19.5,6.4,29.1,5.6c0.7,0,2.1,0,2.8,0h2.1
	c10.7,0,20.5-2.8,29.1-6.4c4.5-0.7,10.1,0.7,11.5,4.3c2.1,2.8,0,6.4-2.8,7.1h-0.7l8,6.4c2.8,2.8,2.8,7.1-2.1,9.9
	c-3.5,2.1-8,2.1-11.5-0.7l-11.5-9.3c-4.5,0.7-8.7,0.7-13.3,2.1v9.3c-0.7,3.6-4.5,6.4-10.1,6.4c-4.5-0.7-8-2.8-8-6.4v-9.3
	C512.9,654,508.4,652.6,502.9,651.9L502.9,651.9z M728.3,604.5c-3.5,2.8-10.1,2.1-12.5-2.1c-2.8-2.8-2.1-7.1,2.8-9.3l0,0
	c13.9-9.3,32.6-13.5,51-15c18.8,0,37.1,5.6,52.3,15c3.5,2.8,3.5,7.1,0.7,9.9c-2.8,2.8-7.2,2.8-10.7,2.1
	c-12.5-7.1-27.3-10.7-42.6-10.7C754.6,593.8,740,597.3,728.3,604.5z M478.2,604.5c-3.5,2.8-10.1,2.1-12.5-2.1
	c-2.8-2.8-2.1-7.1,2.8-9.3l0,0c13.9-9.3,32.6-13.5,51-15c18.8,0,37.1,5.6,52.3,15c3.5,2.1,5.2,6.4,2.8,9.3c-2.8,2.8-8,4.3-12.5,2.8
	c0,0-0.7,0-0.7-0.7c-12.5-7.1-27.3-10.7-42.6-10.7C504.9,593.8,489.6,598.1,478.2,604.5L478.2,604.5z M365.4,569.3
	c2.8-0.7,5.2-2.1,8-2.1c-3.5-20-5.2-41.7-2.8-62.3c2.8-59.5,21.1-106.8,81.2-148.5c87.7-62.3,264.2-67.3,362-13.5
	c13.9,7.1,28.5,17.8,39.9,28.8c39.9,35.8,75.6,115.6,74.5,165.1c0,10.7-2.8,23.2-8,34.6c0,0.7-0.7,2.8-0.7,3.6
	c10.1,4.3,18.8,10.7,24.6,19.2c8.7,10.7,13.3,24.5,13.3,38.1c-2.1,13.5-7.2,28.1-16.6,40.2c-13.3,17.8-31.9,32.4-53.7,43.8
	c-20.5,40.2-50,76.3-84.9,109c-27.3,25.3-62.4,45.2-101,58c-39.9,12.1-82.2,10.7-121.5-2.8c-24-8.6-47.1-20-66.6-35.3
	c-21.8-15.7-40.6-34.6-55.9-54.4c-16.6-21.3-29.9-43.8-42.6-66.6c-5.2-0.7-10.7-2.8-16-4.3c-7.2-2.8-13.3-5.6-19.5-9.3
	c-16.6-10.7-29.1-25.3-35.4-41.7c-8-18.5-8.7-38.1-5.9-56.6c2.1-8.6,4.5-16.4,10.1-25.3C349.6,580.7,357.6,573.6,365.4,569.3z
	 M379.3,587.4L379.3,587.4c-5.2,2.8-8.7,6.4-12.5,9.9c-3.5,5.6-5.9,10.7-7.2,16.4c-2.8,15.7-2.1,31.8,4.5,46.7
	c4.5,12.1,13.9,23.2,26.7,31.8c4.5,2.8,10.1,5.6,15.2,7.1c5.2,2.1,11.5,3.6,18,4.3c4.5,0.7,8,2.8,8.7,6.4c11.5,23.2,26,46.7,42,69
	c13.9,18.5,31.2,35.3,51,50.3c18,12.9,37.1,23.2,59.7,31c32.6,10.7,68.9,12.1,102.3,2.1c34.7-10.7,65.9-28.8,90.2-51.6
	c34.7-31.8,62.4-67.3,81.8-105.4c0.7-2.1,2.8-3.6,5.2-4.3c19.5-9.3,36.4-23.2,48.5-38.1c7.2-9.3,11.5-19.2,13.3-29.5
	c0.7-8.6-2.1-16.4-8-24.5c-2.8-4.3-8-7.1-12.5-9.9c-66.6,121.4-50,21.3-50-42.4c-63.1-23.2-105-75.5-124.8-152
	c-25,146.3-251.5,140.5-309.3,166.5c0,47.3,18.8,117.8-29.1,48.8C390.1,607.4,384.6,598.1,379.3,587.4L379.3,587.4z M457,202.8
	l-79,25.7c-4.5,8.6-9.4,17-14.9,25.6c-10.7,18.5-21.8,37.4-32.2,60.6c-11.7,26.4-11.7,33.8-11.1,55.5c0,4.3,0.4,8.9,0.4,14.6
	l0.7,35.3v0.4c-0.7,16.1,1.7,25.6,5.9,30.6c1.4,1.5,2.3,2.5,3.5,2.8c0.7,0,2.1,0,3.2-0.4c2.3-1.1,4.5-3.6,6.6-7.1l8.4-74
	c0-0.7,0.4-1.5,0.7-2.1c1-3.6,2.1-6.7,4.2-10.7l32.6-69.8c2.1-3.9,6.2-5.4,10.4-3.9c3.9,1.8,5.5,6,3.9,9.9l-33.5,70
	c-0.4,0.4-0.4,0.4-0.4,1.1c-3.5,6.4-3.9,12.1-1.7,15.7c0.7,1.1,1.4,1.8,2.3,2.5c1,0.7,1.7,0.7,3.2,0l0,0c4.5-1.1,10.1-6.4,15.2-18.1
	l0,0c0.4-0.4,0.4-0.4,0.4-1.1l14.3-22.8l0,0c14.9-26,22.5-33.5,36.4-47.3c2.8-2.8,6.2-5.6,10.1-9.9c1.4-1.8,3.2-3.2,4.5-5.4
	c1.4-2.1,2.8-3.9,4.2-6c6.6-9.9,9.4-17.4,10.1-24.5c0.7-7.5-1-16.1-2.8-27.5c-0.7-4.7-1.7-9.3-3.2-13.5
	C457.8,207.1,457.8,204.9,457,202.8L457,202.8z M558.4,467.8L558.4,467.8 M359,232c-1.4-1.1-2.8-2.1-3.2-3.9l-13.1-42.3
	c-1-3.9,1-8.2,5.2-9.3l99.5-32c3.9-1.5,8.4,0.7,9.4,4.7l13.1,42.7c0,0.4,0.4,0.7,0.4,0.7c1.4,4.7,2.3,9.3,3.5,13.5
	c1,4.7,2.1,9.6,2.8,14.6c2.1,12.5,3.9,21.3,2.8,31c-1,9.9-4.5,19.2-12.1,31.4c-1.4,2.5-3.2,4.3-4.9,6.4c-1.7,2.5-3.9,4.7-5.9,6.7
	c-3.5,3.9-6.9,6.7-10.1,10.3c-12.8,12.5-19.8,19.6-33.7,43.8l-0.4,0.4l-13.9,22.1c-7.6,16.8-17.3,24.9-26.3,26.7l0,0l0,0
	c-4.5,1.1-8.7,0.4-12.1-1.1l-5.5,50.5l0,0c0,0.7-0.4,1.8-0.7,2.1c-3.5,8.2-9,13.5-15.2,16.4c-4.2,1.8-8.7,2.5-13.3,1.1
	c-4.2-1.1-8.4-3.6-11.5-7.8c-5.9-7.1-9.7-20-8.7-39.5l-0.4-34.9c0-5-0.4-9.9-0.4-14.2c-0.7-24.3-1-32.7,12.5-62.3
	c10.7-23.5,22.2-43,32.9-61.9C352.7,241.9,355.8,237,359,232L359,232z M369.3,215.3c1-0.7,2.1-1.1,2.8-1.1l80.5-26l-8.7-28.4
	L359,187.3l8.7,28.4L369.3,215.3L369.3,215.3z M826.5,218.5l73.5,19.2c4.5,7.8,9.4,15.7,14.6,23.5c10.4,17,21.5,34.6,31.9,56.3
	c11.7,24.5,12.1,31.8,12.1,52.7c0,3.9,0,8.6,0,13.9l0.7,34.2v0.4c1,15.3-0.7,24.9-4.2,29.9c-1,1.5-2.1,2.5-3.2,2.8
	c-0.7,0-1.7,0.4-2.8,0c-2.3-1.1-4.2-2.8-6.2-6.4l-10.4-70.9c0-0.7-0.4-1.1-0.7-2.1c-1-3.2-2.3-6.4-4.2-9.9L895,296.9
	c-2.1-3.6-5.9-5-9.7-3.2c-3.5,2.1-4.9,6-3.2,9.9l33.2,65.2c0.4,0.4,0.4,0.4,0.4,0.7c3.5,6,3.9,11.4,2.1,15c-0.7,1.1-1,1.8-2.1,2.5
	c-0.7,0.4-1.7,0.7-2.8,0.4l0,0c-4.2-0.7-9.4-5.4-14.6-16.4l0,0c-0.4-0.4-0.4-0.4-0.4-0.7l-13.9-21l0,0c-14.9-24.3-22.2-30.6-35-43
	c-2.3-2.5-5.9-5.4-9.7-8.9c-1.4-1.5-2.8-2.8-4.2-4.7c-1.4-1.8-2.8-3.6-4.2-5.4c-6.2-8.9-9.4-16.1-10.1-22.8
	c-1-7.1,0.4-15.3,1.4-26.4c0.4-4.7,1-8.9,2.1-13.5C825.7,222.8,826.1,220.6,826.5,218.5L826.5,218.5z M743.2,480.3L743.2,480.3
	 M917.9,239.9c1.4-1.1,2.3-2.5,2.8-3.9l10.4-41.7c1-3.9-1.4-7.8-4.9-8.6l-92.6-24.3c-3.9-1.1-7.6,1.5-8.4,5l-10.4,42
	c0,0.4,0,0.7,0,0.7c-1,4.7-1.7,8.9-2.3,13.1c-0.7,4.7-1.7,9.6-2.1,14.2c-1.7,12.1-2.8,21-1.4,30.3c1.4,9.6,4.9,18.1,12.5,29.2
	c1.4,2.1,2.8,3.9,4.5,6c1.7,2.1,3.5,4.3,5.5,6.4c3.5,3.6,6.6,6,9.7,9.3c12.1,11.4,19.1,17.4,32.6,39.8l0.4,0.4l13.5,20.4
	c7.6,15.7,17,22.8,25.4,23.9l0,0l0,0c4.2,0.7,8,0,11.1-1.8l6.9,48.1l0,0c0,0.7,0.4,1.5,0.7,2.1c3.5,7.5,8.7,12.5,14.6,15
	c3.9,1.5,8.4,1.8,12.1,0.4c3.9-1.1,7.2-3.9,10.4-8.2c4.9-7.1,8.4-20,6.2-38.9l-1-33.8c-0.4-5,0-9.6-0.4-13.5
	c-0.4-23.2-0.4-31.8-13.9-59.1c-10.7-22.1-21.8-39.8-32.6-57.4C923.9,249.2,921,244.5,917.9,239.9L917.9,239.9z M907.5,224.5
	c-1-0.7-2.1-0.7-2.8-0.7l-75-19.6l6.9-27.8l79.2,20.7l-6.9,27.8L907.5,224.5L907.5,224.5z"/>
</svg>
