<?xml version="1.0" encoding="utf-8"?>
<!-- Generator: Adobe Illustrator 25.2.3, SVG Export Plug-In . SVG Version: 6.00 Build 0)  -->
<svg version="1.0" id="Layer_1" xmlns="http://www.w3.org/2000/svg" xmlns:xlink="http://www.w3.org/1999/xlink" x="0px" y="0px"
	 viewBox="0 0 1024 768" style="enable-background:new 0 0 1024 768;" xml:space="preserve">
<style type="text/css">
	.st0{fill-rule:evenodd;clip-rule:evenodd;}
</style>
<path class="st0" d="M445.3,104.4c46.1-26,98.2-20.3,141.3,7.3c11.5,7.4,21.3,16.5,28.7,26.9c6.6,9.2,18,28-3.4,30.9
	c-8.4,1.1-23.2-8.5-34.6-11.6c-14.5-3.9-29.4-6.4-44.6-7.8c-26.4-2.3-53-0.7-78.7,5c-12.7,2.9-25.1,6.6-37.1,11.1
	c-5.5,2.1-16.9,8.4-20,0.4C390,147.7,428.9,113.7,445.3,104.4z M668.3,581.7l-0.5,0.9c18,8,25.3,26.5,16.5,41.9l1.1,0.5
	c9.6-15,31.7-21.1,50.1-13.8l0.5-0.9c-18-8.1-25.3-26.5-16.5-42l-1.1-0.5C708.9,582.9,686.8,589,668.3,581.7L668.3,581.7z
	 M569,664.4v0.5c9.9,4.4,13.9,14.4,9,22.9l0.6,0.2c5.2-8.2,17.3-11.6,27.4-7.6V680c-9.9-4.4-13.9-14.4-9-22.9h-0.6
	c-5.2,8.2-17.3,11.6-27.4,7.6V664.4z M376.9,651.8l0.7,1.1c-21.7,9.1-31.1,30.9-21.2,49.4l-1.3,0.5c-5-8.9-14.1-15.7-25.3-18.7
	c-10.9-3.6-23.2-3.2-33.8,1.1l-0.7-1.1c10.7-4.2,18.8-11.8,22.5-21.2c4.2-9.1,3.8-19.4-1.3-28.3l1.3-0.5c5,8.9,14.1,15.7,25.3,18.7
	C354,656.4,366.3,656,376.9,651.8z M340.6,567.4l0.5,0.9c-18.4,7.6-26.3,25.9-18,41.5l-1.1,0.5c-4.2-7.5-11.9-13.2-21.3-15.8
	c-9.2-2.9-19.4-2.6-28.4,0.9l-0.5-0.9c9-3.5,15.9-9.9,19-17.8c3.6-7.6,3.2-16.2-1.1-23.5l1.1-0.5c4.2,7.3,11.9,12.9,21.3,15.5
	C321.3,571.2,331.6,570.9,340.6,567.4L340.6,567.4L340.6,567.4z M437.6,652.3l0.3,0.5c-4.9,2-8.6,5.4-10.3,9.7
	c-1.9,4.2-1.7,8.9,0.6,13h-0.6c-2.3-4.1-6.5-7.2-11.6-8.6c-5-1.7-10.7-1.4-15.5,0.5l-0.3-0.5c9.9-4.2,14.3-14.1,9.7-22.7h0.6
	C415.3,652.5,427.3,656,437.6,652.3z M480.1,548.8c1.4-0.4,2.9-0.4,4.2,0c2.3,0.5,4,1.9,4.8,3.7c3.9,6.3,34,6.9,39.6-0.3
	c1.7-2.9,6-4.1,9.4-2.6c3.1,1.3,4.6,4.4,3.4,7.1c-10.1,16.6-57.4,16.3-65.9-0.4c-1.3-3,0.6-6.3,4.2-7.5L480.1,548.8z M582.1,453.2
	l-8.1,8.4c-2.4,2.5-6.8,2.9-9.7,1c0,0-0.1,0-0.1-0.1c-3-2.1-3.4-5.8-0.9-8.3c0,0,0,0,0.1-0.1l5.4-6c-3-1.8-3.8-5.4-1.7-8
	s6.4-3.4,9.5-1.7c0.1,0,0.1,0.1,0.1,0.1c7.4,3.3,15.6,4.8,24,4.4c8.6,0.1,17.2-1.7,24.7-5.3c3.2-1.7,7.6-1,9.6,1.7c0,0,0,0,0,0.1
	c2.1,2.7,1.1,6.3-2.1,8.1c0,0,0,0-0.1,0l-0.7,0.4l6.3,5.8c2.6,2.4,2.4,6.1-0.5,8.3c-2.9,2.2-7.3,2-9.9-0.5l-9.6-8.9
	c-3.3,0.8-6.7,1.3-10.1,1.6v8.2c0.3,3.3-2.5,6.1-6.4,6.4c-3.9,0.3-7.4-2.1-7.7-5.4c-0.1-0.4-0.1-0.8,0-1.1v-8c-4-0.2-8-0.8-12-1.6
	L582.1,453.2z M397.7,453.2l-8.2,8.2c-2.4,2.5-6.8,2.9-9.9,0.9c0,0,0,0-0.1,0c-3-2-3.5-5.7-1.1-8.2c0,0,0,0,0.1-0.1l5.4-5.6l0,0
	c-3.3-1.8-4.2-5.5-2.1-8.2c2.1-2.8,6.6-3.6,9.9-1.7c7.2,3.3,15.3,5,23.5,4.7c0.6-0.1,1.3-0.1,1.9,0h1.5c8.2-0.1,16.2-1.7,23.4-5
	c3.7-1.1,7.7,0.5,9,3.6c0.9,2.3,0.1,4.8-2,6.4h-0.3l5.7,5c2.3,2.6,1.7,6.3-1.4,8.2c-2.7,1.7-6.5,1.6-9-0.4l-9.3-7.9
	c-3.4,0.7-7,1.3-10.5,1.6v7.9c-0.3,3.3-3.8,5.7-7.7,5.4c-3.4-0.2-6.1-2.5-6.4-5.4v-7.9C405.9,454.6,401.8,454.1,397.7,453.2
	L397.7,453.2z M575.3,414.4c-3.1,1.9-7.6,1.3-9.8-1.3c-2.2-2.6-1.5-6.3,1.7-8.1l0,0c11.7-7.4,25.9-11.6,40.5-11.9
	c14.9,0.2,29.4,4.4,41.4,11.8c2.9,2.2,3,5.9,0.4,8.2c-2.1,1.9-5.4,2.4-8.3,1.3c-9.6-6-21.3-9.4-33.3-9.7
	C596.1,404.9,584.7,408.3,575.3,414.4z M378,414.4c-3.1,1.9-7.6,1.3-9.8-1.3c-2.2-2.6-1.5-6.3,1.7-8.1l0,0
	c11.7-7.4,25.9-11.6,40.5-11.9c14.9,0.2,29.4,4.4,41.4,11.8c3.2,1.7,4.2,5.4,2.2,8.1c-2.1,2.7-6.4,3.6-9.7,1.8
	c-0.1-0.1-0.3-0.2-0.5-0.2c-9.7-6-21.3-9.4-33.3-9.7c-11.8,0.2-23.2,3.6-32.6,9.7L378,414.4z M289.3,385.3c1.9-1,4.2-1.5,6.4-1.4
	c-3.2-17.1-4-34.3-2.5-51.6c2.2-49.1,17-88.4,63.4-122.4c69.8-51.3,208.2-55.9,285.2-11.6c11.7,6.7,22.3,14.6,31.6,23.5
	c31.2,30,59.1,95.7,58.5,136.2c-0.2,9.8-2.3,19.4-6,28.7c0,1-0.4,2-0.8,3.2c8,4.1,14.8,9.6,20,16.1c7.3,9.1,10.8,20,9.9,30.9
	c-1.1,11.7-5.6,23-13,33c-10.9,14.4-25.3,26.6-42.3,36c-16.4,32.9-39.2,63.3-67.3,90.1c-21.5,21.1-48.9,37.5-79.6,47.9
	c-31,9.9-65.4,9.2-95.9-1.8c-19.4-7-37.3-16.8-52.7-28.8C387,600.1,372,585,359.7,568.4c-13-17.5-24.3-36-33.5-55
	c-4.3-1.1-8.6-2.4-12.7-4.1c-5.6-2.1-10.8-4.8-15.6-7.9c-13.3-8.9-23.1-21-28.1-34.6c-5.7-15-7.4-30.8-4.8-46.4
	c1-7.1,3.6-14.1,7.8-20.4C276.7,394,282.5,389,289.3,385.3z M300.9,400.4L300.9,400.4c-3.9,2-7.2,5-9.4,8.4c-2.8,4.3-4.6,9-5.2,13.8
	c-2.3,12.9-1,26.1,3.7,38.5c3.8,10.2,11.1,19.2,21.1,25.9c3.8,2.3,7.8,4.3,12,5.9c4.5,1.7,9.1,3.1,14,4.1c3.3,0.7,6.1,2.6,7.4,5.3
	c9,19.6,20.1,38.5,33.1,56.5c11.2,15.2,24.9,29.1,40.5,41.3c13.7,10.7,29.6,19.4,46.7,25.7c25.5,9.3,54.4,9.8,80.3,1.5
	c27.5-9.4,52-24.2,71.2-43.2c27.2-25.9,49.1-55.4,64.8-87.4c0.9-1.7,2.3-3.2,4.2-4.2c15.4-8.1,28.5-18.9,38.3-31.7
	c5.6-7.5,9.1-16,10-24.7c0.6-7-1.5-14.1-6-20c-2.6-3.3-5.9-6.2-9.7-8.5c-53,100.7-38.8,17.5-38.8-35.8
	c-50.1-19.5-82.6-61.9-99.2-125.6c-19.8,121.4-198.2,116.1-243,138.3c0,38.8,15.2,97.4-22.9,40.4c-5.3-7.8-9.7-15.9-13.3-24.3V400.4
	z"/>
</svg>
