<?xml version="1.0" encoding="utf-8"?>
<!-- Generator: Adobe Illustrator 25.2.3, SVG Export Plug-In . SVG Version: 6.00 Build 0)  -->
<svg version="1.0" id="Layer_1" xmlns="http://www.w3.org/2000/svg" xmlns:xlink="http://www.w3.org/1999/xlink" x="0px" y="0px"
	 viewBox="0 0 1280 1024" style="enable-background:new 0 0 1280 1024;" xml:space="preserve">
<g>
	<path d="M329.6,891.2c-26.5-208.8,14.8-314.7,50.8-407.4c12.9-33.1,35.6-94.4,43.6-157c6.7-52.1,1.8-105.1-1-143.3h18.8
		c2.9,41.1,7.4,96.8,0.2,151.1c-8.3,62.6-31.3,123.2-44.3,156.9c-1.4,3.6-2.8,7.1-4.2,10.7c186.8,61.1,360.8,57.6,524-0.4l-3.5-9
		c-12.6-32.7-45.7-90.9-54-151.8c-7.6-56.2,4.7-114.7,9.4-157.5h18.9c-4.6,40.8-17.2,97.8-9.8,153c8,59.7,40.7,117,52.9,148.7
		c36,93.1,77.1,199.3,50.9,406h-19c21.1-164.4-1.1-263.8-29-344c-95.8,42.6-171.9,107.5-241,189.3c0.3,1.4,0.3,2.8,0,4.2
		c-5.9,30-10.2,67.3-12.6,108.5c-0.8,13.6-1.3,27.6-1.7,41.9h-18.8c0.4-14.7,0.9-29.1,1.8-43.1c1.8-31.8,4.7-61.6,8.7-87.5h-34.2
		c4.5,25.9,7.8,55.3,9.8,86.7c0.9,14.2,1.6,28.9,2,43.9h-18.8c-0.4-14.5-1-28.7-1.9-42.6c-2.6-40.5-7.3-77.4-14.1-107.7
		c-0.1-0.3-0.1-0.6-0.1-0.8c-69-86-145.3-148.8-237.6-189.8c-27.3,79.2-48.3,178.1-27.3,341H329.6L329.6,891.2z M374,326.3
		l-35.4,36.6c-3,3.1-7.7,3-10.6-0.1c-2.9-3.2-2.9-8.2,0.1-11.3l22.5-23.3h-63.8c-4.1,0-7.5-3.6-7.5-8s3.4-8,7.5-8h63.8l-22.5-23.3
		c-3-3.1-3-8.1-0.1-11.3c2.9-3.2,7.6-3.2,10.6-0.1l35.4,36.6c1.6,1.5,2.7,3.7,2.7,6.1C376.7,322.6,375.7,324.8,374,326.3L374,326.3z
		 M953.9,328.1l22.5,23.3c3,3.1,3,8.1,0.1,11.3c-2.9,3.2-7.6,3.2-10.6,0.1l-35.4-36.6c-1.6-1.5-2.7-3.7-2.7-6.1c0-2.5,1-4.7,2.7-6.1
		l35.4-36.6c3-3.1,7.7-3,10.6,0.1c2.9,3.2,2.9,8.2-0.1,11.3l-22.5,23.3h63.8c4.2,0,7.5,3.6,7.5,8c0,4.4-3.4,8-7.5,8L953.9,328.1
		L953.9,328.1z M655.9,465.8c6.6,0,12,4.3,12,9.5s-5.3,9.5-12,9.5c-6.7,0-12-4.3-12-9.5C644,470.1,649.3,465.8,655.9,465.8
		L655.9,465.8z"/>
</g>
</svg>
